<?xml version="1.0" encoding="UTF-8" standalone="no"?>
<svg width="31px" height="16px" viewBox="0 0 31 16" version="1.1" xmlns="http://www.w3.org/2000/svg" xmlns:xlink="http://www.w3.org/1999/xlink">
    <title>Icon PHP</title>
    <defs></defs>
    <g id="icon-php" stroke="none" stroke-width="1" fill="none" fill-rule="evenodd">
        <path d="M8.22514278,3.8031472 L2.96433472,3.8031472 L0.69,15.3193703 L3.39135267,15.3193703 L3.96026788,12.3342231 L6.51972328,12.3342231 C8.93595526,12.4761204 11.6386341,10.4855802 11.6386341,7.07341508 C11.6386341,5.0828749 10.5008036,3.94504447 8.22646892,3.8031472 L8.22514278,3.8031472 Z M6.2346026,10.2017857 L4.52785695,10.2017857 L5.23866944,5.93691079 L7.08731235,5.93691079 C8.08191937,5.93691079 8.794058,6.36392874 8.794058,7.21663849 C8.65216073,9.63419662 7.5143303,10.0598884 6.2346026,10.2017857 L6.2346026,10.2017857 Z M17.7508257,3.8031472 L15.1913703,3.8031472 L15.7602856,0.818 L13.0589329,0.818 L10.7845982,12.3342231 L13.4859508,12.3342231 L14.7656785,5.93691079 L16.898116,5.93691079 C17.8940492,5.93691079 17.8940492,6.36392874 17.7508257,7.07474123 L16.7562187,12.3355493 L19.5994687,12.3355493 L20.5940757,6.50582601 C20.8778702,5.08420104 20.0251605,3.94637061 17.7508257,3.80447334 L17.7508257,3.8031472 Z M27.2765087,3.8031472 L22.0157006,3.8031472 L19.7413659,15.3193703 L22.4427186,15.3193703 L23.0116338,12.3342231 L25.5710892,12.3342231 C27.9886473,12.4761204 30.69,10.4855802 30.69,7.07341508 C30.69,5.0828749 29.5521696,3.94504447 27.2778349,3.8031472 L27.2765087,3.8031472 Z M25.2859685,10.2017857 L23.5792229,10.2017857 L24.2900354,5.93691079 L26.1386783,5.93691079 C27.1346114,5.93691079 27.8454239,6.36392874 27.8454239,7.21663849 C27.7035267,9.63419662 26.5656962,10.0598884 25.2859685,10.2017857 L25.2859685,10.2017857 Z" id="php" fill="#4F72B0"></path>
    </g>
</svg>
