<?xml version="1.0" encoding="UTF-8" standalone="no"?>
<svg width="30px" height="34px" viewBox="0 0 30 34" version="1.1" xmlns="http://www.w3.org/2000/svg" xmlns:xlink="http://www.w3.org/1999/xlink">
    <title>Icon Viadeo</title>
    <defs></defs>
    <g id="icon-viadeo" stroke="none" stroke-width="1" fill="none" fill-rule="evenodd">
        <path d="M18.5355912,10.0387016 C18.600934,10.9513109 19.6682007,27.6966292 10.5855433,31.0499376 C10.5855433,31.0499376 11.4132195,31.1985019 12.3715814,31.1560549 C12.3715814,31.1560549 23.9154866,24.0461923 18.622715,10.2721598 C18.622715,10.2509363 18.600934,10.1872659 18.5355912,10.0387016 L18.5355912,10.0387016 Z M13.7002196,0 C16.5970863,4.75405743 18.1870959,9.01997503 18.5355912,10.0387016 L18.5355912,9.99625468 C17.8168197,2.6741573 13.7002196,0 13.7002196,0 L13.7002196,0 Z M28.2063344,0.764044944 C26.7252296,3.82022472 24.0026104,4.39325843 24.0026104,4.39325843 C21.2799913,5.07240949 20.3216293,6.09113608 20.3216293,6.09113608 C17.5990102,8.76529338 19.7335436,12.0124844 19.7335436,12.0124844 C25.6361819,10.6966292 27.7924963,5.98501873 27.7924963,5.98501873 C27.5311249,9.16853933 20.5176579,12.9038702 20.5176579,12.9038702 C22.826439,15.1323346 25.0480962,14.8564295 26.5074201,14.0074906 C28.4459249,12.8826467 29.3825059,10.4207241 29.3825059,10.4207241 C31.2774488,4.94506866 28.2063344,0.764044944 28.2063344,0.764044944 Z M21.5195818,21.8601748 C21.5195818,23.536829 21.1057437,25.1285893 20.2780674,26.5717853 C19.4503912,28.0362047 18.3395626,29.1610487 16.9238006,29.9463171 C15.5080387,30.7315855 13.983372,31.1348315 12.2844576,31.1348315 C10.6073242,31.1348315 9.06087653,30.7315855 7.64511457,29.9463171 C6.22935262,29.1610487 5.118524,28.0362047 4.29084778,26.5717853 C3.46317156,25.1073658 3.04933345,23.536829 3.04933345,21.8601748 C3.04933345,19.2496879 3.96413348,17.0212235 5.7719526,15.1747815 C7.57977172,13.3283396 9.75786704,12.4157303 12.2844576,12.4157303 C13.48241,12.4157303 14.6150196,12.627965 15.6387244,13.0524345 C15.7476292,11.9912609 16.1179054,10.9937578 16.5535244,10.1872659 C15.2466672,9.72034956 13.8091243,9.48689139 12.2844576,9.48689139 C8.64703842,9.48689139 5.61948593,10.8027466 3.22358107,13.4132335 C1.08904766,15.7690387 -1.77635684e-15,18.5705368 -1.77635684e-15,21.7965044 C-1.77635684e-15,25.0649189 1.15439052,27.9088639 3.44139061,30.349563 C5.72839069,32.7902622 8.69060033,34 12.3062386,34 C15.9000958,34 18.8623055,32.7902622 21.1493056,30.349563 C23.4363056,27.9088639 24.5906962,25.0649189 24.5906962,21.7965044 C24.5906962,20.0561798 24.2639819,18.443196 23.6541152,16.9363296 C22.6086294,17.5730337 21.6067056,17.8913858 20.7790294,18.0611735 C21.2799913,19.2284644 21.5195818,20.5018727 21.5195818,21.8601748 Z" id="viadeo" fill="#FFFFFF"></path>
    </g>
</svg>
