<?xml version="1.0" encoding="UTF-8" standalone="no"?>
<svg width="30px" height="40px" viewBox="0 0 30 40" version="1.1" xmlns="http://www.w3.org/2000/svg" xmlns:xlink="http://www.w3.org/1999/xlink">
    <title>Icon Java</title>
    <defs></defs>
    <g id="icon-java" stroke="none" stroke-width="1" fill="none" fill-rule="evenodd">
        <path d="M9.66223658,30.9346049 C9.66223658,30.9346049 8.1085036,31.8229849 10.7682033,32.1248163 C13.9911708,32.4857693 15.6398366,32.4344268 19.1919043,31.7731983 C19.1919043,31.7731983 20.1254099,32.3488561 21.4307354,32.8482781 C13.4674584,36.2042074 3.40933157,32.6537991 9.66381879,30.9346049 L9.66223658,30.9346049 Z M8.6891757,26.5549382 C8.6891757,26.5549382 6.94557719,27.824497 9.60844134,28.0952117 C13.0513364,28.4437181 15.7711602,28.4732789 20.4766611,27.5817872 C20.4766611,27.5817872 21.1269506,28.2305691 22.1506423,28.5852988 C12.5228773,31.3531237 1.79863893,28.8031152 8.6891757,26.5549382 L8.6891757,26.5549382 Z M16.8929491,19.1258411 C18.854893,21.347569 16.3771477,23.3468129 16.3771477,23.3468129 C16.3771477,23.3468129 21.3595359,20.8185861 19.0716561,17.6509125 C16.9340866,14.6979436 15.2964964,13.2307941 24.1679636,8.17122893 C24.1679636,8.17122893 10.2429087,11.5909474 16.8929491,19.1273969 L16.8929491,19.1258411 Z M27.4241576,34.1738468 C27.4241576,34.1738468 28.5744263,35.1057901 26.1568051,35.8261403 C21.5604769,37.1952723 7.02627004,37.6091236 2.98846296,35.8805944 C1.53757382,35.2598175 4.25897984,34.3978866 5.11495697,34.2174101 C6.007325,34.0275986 6.51837973,34.0618269 6.51837973,34.0618269 C4.90452267,32.9431838 -3.91473152,36.2571057 2.03913528,37.2061631 C18.2758031,39.7950673 31.636008,36.0408451 27.4241576,34.172291 L27.4241576,34.1738468 Z M10.409041,22.0181325 C10.409041,22.0181325 3.01536058,23.7451059 7.79047883,24.3721061 C9.80621794,24.6381533 13.8250385,24.5774759 17.5701362,24.2694212 C20.6301358,24.0158206 23.702793,23.4759469 23.702793,23.4759469 C23.702793,23.4759469 22.6237239,23.9302499 21.843693,24.4545652 C14.3360932,26.3962434 -0.166469377,25.492305 4.00899022,23.5070636 C7.54048921,21.828321 10.4106232,22.0196883 10.4106232,22.0196883 L10.409041,22.0181325 Z M23.672731,29.3072048 C31.3053256,25.4082901 27.7754088,21.6602912 25.3134857,22.1643807 C24.7090804,22.2872914 24.4401042,22.3946438 24.4401042,22.3946438 C24.4401042,22.3946438 24.6647784,22.0492491 25.0919759,21.8998893 C29.9636091,20.2149234 33.7118712,26.8676604 23.5192563,29.5032396 C23.5192563,29.5032396 23.6379223,29.3989988 23.672731,29.3072048 L23.672731,29.3072048 Z M19.0700739,0 C19.0700739,0 23.2961643,4.15718273 15.0607467,10.5500958 C8.45659042,15.6781177 13.5544801,18.6030816 15.0575823,21.9434526 C11.2033119,18.5237341 8.37431535,15.5131995 10.2713885,12.7111463 C13.0576653,8.59752686 20.7741171,6.60450625 19.0684917,2.07278443e-15 L19.0700739,0 Z M11.1590099,39.8744148 C18.4846552,40.334941 29.7341882,39.6192583 30,36.2104307 C30,36.2104307 29.4873631,37.503327 23.9464538,38.5286202 C17.6935488,39.6861591 9.98184357,39.5508017 5.40924855,38.8086699 C5.40924855,38.8086699 6.34591854,39.5710275 11.1605921,39.8744148 L11.1590099,39.8744148 Z" id="java" fill="#8AA1CA"></path>
    </g>
</svg>
