<?xml version="1.0" encoding="UTF-8" standalone="no"?>
<svg width="25px" height="17px" viewBox="0 0 25 17" version="1.1" xmlns="http://www.w3.org/2000/svg" xmlns:xlink="http://www.w3.org/1999/xlink">
    <title>Icon Money</title>
    <defs></defs>
    <g id="icon-money" stroke="none" stroke-width="1" fill="none" fill-rule="evenodd">
        <path d="M0.709599276,16.2534007 C0.866344565,16.410146 1.04605254,16.5 1.26968913,16.5 L23.6563109,16.5 C23.8809458,16.5 24.0596554,16.410146 24.2164007,16.2534007 C24.3741444,16.0966554 24.463,15.9169475 24.463,15.6933109 L24.463,1.30668913 C24.463,1.08205416 24.3741444,0.903344565 24.2164007,0.746599276 C24.0596554,0.589853987 23.8809458,0.5 23.6563109,0.5 L1.26968913,0.5 C1.04605254,0.5 0.866344565,0.589853987 0.709599276,0.746599276 C0.552853987,0.903344565 0.463,1.08205416 0.463,1.30668913 L0.463,15.6933109 C0.463,15.9169475 0.552853987,16.0966554 0.709599276,16.2534007 L0.709599276,16.2534007 Z M2.05441395,5.29520779 C2.92799438,5.29520779 3.68975652,4.98171721 4.31773605,4.35373768 C4.94471721,3.72675652 5.25820779,2.96499438 5.25820779,2.09041557 L19.6677922,2.09041557 C19.6677922,2.96499438 19.9812828,3.72675652 20.6092623,4.35373768 C21.2362435,4.98171721 21.9980056,5.29520779 22.8725844,5.29520779 L22.8725844,11.7047922 C21.9980056,11.7047922 21.2362435,12.0182828 20.6092623,12.6452639 C19.9812828,13.2732435 19.6677922,14.0350056 19.6677922,14.908586 L5.25820779,14.908586 C5.25820779,14.0350056 4.94471721,13.2732435 4.31773605,12.6452639 C3.68975652,12.0182828 2.92799438,11.7047922 2.05441395,11.7047922 L2.05441395,5.29520779 L2.05441395,5.29520779 Z M9.47136141,11.9503931 C9.78485199,12.4665543 10.2111592,12.8918632 10.7263221,13.2053538 C11.2644476,13.5418071 11.8465018,13.6985524 12.4744813,13.6985524 C13.0794982,13.6985524 13.6625507,13.5418071 14.1996779,13.2053538 C14.7148408,12.8918632 15.141148,12.4665543 15.4546386,11.9503931 C15.7910919,11.4352303 16.0376911,10.8751404 16.1944364,10.2701235 C16.373146,9.6651067 16.463,9.08205416 16.463,8.5 C16.463,7.91694746 16.373146,7.31193061 16.1944364,6.72987645 C16.0376911,6.1248596 15.7910919,5.56377137 15.4546386,5.04860851 C15.141148,4.53344565 14.7148408,4.1071384 14.1996779,3.79364782 C13.6625507,3.45819294 13.0794982,3.30044927 12.4744813,3.30044927 C11.8465018,3.30044927 11.2644476,3.45819294 10.7263221,3.79364782 C10.2111592,4.1071384 9.78485199,4.53344565 9.47136141,5.04860851 C9.13590653,5.56377137 8.88930725,6.1248596 8.73156358,6.72987645 C8.55285399,7.31193061 8.463,7.91694746 8.463,8.5 C8.463,9.08205416 8.55285399,9.6651067 8.73156358,10.2701235 C8.88930725,10.8751404 9.13590653,11.4352303 9.47136141,11.9503931 L9.47136141,11.9503931 Z M11.8465018,4.89186322 L13.2592062,4.89186322 L13.2592062,10.4947585 L14.8725844,10.4947585 L14.8725844,11.7047922 L10.054414,11.7047922 L10.054414,10.4947585 L11.6677922,10.4947585 L11.6677922,6.88662174 L11.6448295,6.88662174 C11.5330112,7.06533134 11.3093746,7.2899663 10.9509571,7.60345688 L9.98652427,6.61705978 L11.8465018,4.89186322 L11.8465018,4.89186322 Z" id="money" fill="#45C7FD"></path>
    </g>
</svg>
