<?xml version="1.0" encoding="UTF-8" standalone="no"?>
<svg width="16px" height="23px" viewBox="0 0 16 23" version="1.1" xmlns="http://www.w3.org/2000/svg" xmlns:xlink="http://www.w3.org/1999/xlink">
    <title>Icon location</title>
    <defs></defs>
    <g id="icon-location" stroke="none" stroke-width="1" fill="none" fill-rule="evenodd">
        <path d="M0.547999377,10.8466159 L5.89771509,21.9369674 C6.05543765,22.2709245 6.29143734,22.5019497 6.58001122,22.6815088 C6.89428803,22.861068 7.23543609,22.964 7.57658416,22.964 C7.91773222,22.964 8.25771197,22.861068 8.5731571,22.6815088 C8.86173098,22.5019497 9.09773066,22.2709245 9.25428491,21.9369674 L14.6040006,10.8466159 C14.9194458,10.1798453 15.076,9.3323718 15.076,8.280178 C15.076,6.27757871 14.342298,4.53230942 12.8737257,3.11985361 C11.4051534,1.68223664 9.64800717,0.964 7.57658416,0.964 C5.50516115,0.964 3.74801495,1.68223664 2.27944264,3.11985361 C0.810870317,4.53230942 0.076,6.27757871 0.076,8.280178 C0.076,9.3323718 0.233722564,10.1798453 0.547999377,10.8466159 L0.547999377,10.8466159 Z M7.57658416,4.63524142 C8.59886004,4.63524142 9.4902846,4.99435974 10.2251549,5.71259638 C10.9588569,6.43197671 11.3268762,7.27830651 11.3268762,8.280178 C11.3268762,9.30606696 10.9588569,10.1535404 10.2251549,10.8729208 C9.4902846,11.5911574 8.59886004,11.9502757 7.57658416,11.9502757 C6.55313996,11.9502757 5.6617154,11.5911574 4.9280134,10.8729208 C4.19314308,10.1535404 3.82629208,9.30606696 3.82629208,8.280178 C3.82629208,7.27830651 4.19314308,6.43197671 4.9280134,5.71259638 C5.6617154,4.99435974 6.55313996,4.63524142 7.57658416,4.63524142 L7.57658416,4.63524142 Z" id="location" fill="#45C7FD"></path>
    </g>
</svg>
