<?xml version="1.0" encoding="UTF-8" standalone="no"?>
<svg width="30px" height="25px" viewBox="0 0 30 25" version="1.1" xmlns="http://www.w3.org/2000/svg" xmlns:xlink="http://www.w3.org/1999/xlink">
    <title>Icon Twitter</title>
    <defs></defs>
    <g id="icon-twitter" stroke="none" stroke-width="1" fill="none" fill-rule="evenodd">
        <path d="M9.73367663,24.424 C11.8458409,24.424 13.8242494,24.0885451 15.7056483,23.4161378 C17.5532408,22.7092864 19.1362615,21.8017611 20.4561804,20.6591179 C21.742293,19.5164747 22.8975895,18.2061041 23.8544572,16.7265084 C24.7775185,15.2139663 25.5036209,13.6669802 25.9651515,12.0541011 C26.4281521,10.441222 26.6589174,8.82684538 26.6589174,7.17952228 L26.6589174,6.40677799 C27.812744,5.53369674 28.8034181,4.49139049 29.628,3.2813568 C28.4727035,3.75159266 27.3512134,4.08704755 26.1959169,4.18888207 C27.4834992,3.41464021 28.374224,2.30644103 28.8034181,0.861289405 C27.6481216,1.5666432 26.3943457,2.0713231 25.0420902,2.3393875 C23.8544572,1.06196331 22.4022524,0.424 20.6869458,0.424 C19.0701186,0.424 17.6517202,0.994572819 16.4964237,2.17166005 C15.3425971,3.38169375 14.7487805,4.79389891 14.7487805,6.47416848 C14.7487805,6.91145788 14.8149235,7.38169375 14.9134029,7.85192961 C12.4719939,7.75159266 10.1952073,7.11213179 8.05070654,6.00393261 C5.94001216,4.8612894 4.12475621,3.38169375 2.6402149,1.53369674 C2.11254131,2.47416848 1.81563305,3.4820307 1.81563305,4.59172744 C1.81563305,5.59958967 2.08020476,6.57450543 2.54173543,7.4820307 C3.03707248,8.35660951 3.66322554,9.06196331 4.4878074,9.6340337 C3.53093969,9.59958967 2.6402149,9.33152527 1.7832965,8.8612894 L1.7832965,8.9286799 C1.7832965,10.406778 2.24482717,11.6842022 3.13555195,12.7938989 C4.05861328,13.9035957 5.1801034,14.5745054 6.56616523,14.8770139 C6.03849164,15.0117948 5.51081804,15.0791853 4.98314445,15.0791853 C4.6524298,15.0791853 4.28937861,15.0462389 3.86165433,14.9788484 C4.25704207,16.1888821 4.94933806,17.1967443 5.97234871,17.9709861 C6.99535935,18.7766769 8.15065585,19.1795223 9.43676837,19.1795223 C7.25993107,20.9286799 4.81852205,21.7688147 2.04639838,21.7688147 C1.51872478,21.7688147 1.05719412,21.7688147 0.628,21.7014242 C3.36631728,23.5164747 6.43387937,24.424 9.73367663,24.424" id="twitter" fill="#FFFFFF"></path>
    </g>
</svg>
