<?xml version="1.0" encoding="UTF-8" standalone="no"?>
<svg width="30px" height="29px" viewBox="0 0 30 29" version="1.1" xmlns="http://www.w3.org/2000/svg" xmlns:xlink="http://www.w3.org/1999/xlink">
    <title>Icon Ruby</title>
    <defs></defs>
    <g id="icon-ruby" stroke="none" stroke-width="1" fill="none" fill-rule="evenodd">
        <path d="M8.22135936,26.0398707 C14.8632089,26.9536638 21.3864349,27.8523707 28.0389712,28.768319 C25.7722998,24.9633621 23.5644058,21.2553879 21.3383443,17.5172414 C16.977059,20.3512931 12.6563836,23.1584052 8.22242804,26.0398707 L8.22135936,26.0398707 Z M29.9145056,4.97844828 C29.3288686,5.86530172 28.742163,6.75107759 28.1575948,7.63793103 C26.149544,10.6842672 24.1414933,13.7306034 22.1355799,16.7780172 C22.0233685,16.9482759 21.8790966,17.0829741 22.0361926,17.34375 C23.9747791,20.5711207 25.8973354,23.8081897 27.8252351,27.0420259 C28.1298091,27.5528017 28.4365204,28.0614224 28.8308635,28.5517241 C29.2198632,20.7025862 29.6099316,12.8534483 30,5.00431034 C29.9711456,4.99568966 29.9422913,4.98706897 29.9145056,4.97952586 L29.9145056,4.97844828 Z M3.45397549,15.0409483 C3.54481334,15.1282328 3.77030493,15.1778017 3.8761043,15.1260776 C5.73560844,14.2047414 7.60686805,13.3038793 9.42469364,12.3060345 C10.0178113,11.9806034 10.4741379,11.3987069 10.9849672,10.9256466 C12.6766885,9.36099138 14.3662724,7.79310345 16.0547877,6.22521552 C16.1584497,6.12931034 16.2802793,6.03556034 16.3422628,5.91487069 C16.9492733,4.71982759 17.5445284,3.51831897 18.1622257,2.28232759 C17.4259048,2.00323276 16.7291251,1.73060345 16.0227273,1.48275862 C15.9276147,1.44935345 15.7758621,1.51616379 15.6722001,1.57435345 C14.0371188,2.49461207 12.3721146,3.36637931 10.7893987,4.37068966 C9.99750641,4.87284483 9.35202337,5.61422414 8.65096894,6.25862069 C7.52030493,7.29849138 6.39177828,8.34159483 5.27821317,9.39978448 C4.98218866,9.68103448 4.71288116,10.0010776 4.48311485,10.3394397 C3.72114563,11.4579741 2.98268738,12.5926724 2.21003135,13.7586207 C2.64177828,14.2101293 3.03505272,14.6411638 3.45504417,15.0420259 L3.45397549,15.0409483 Z M10.2486463,13.512931 C9.32423767,17.4525862 8.40410373,21.3706897 7.45404674,25.4170259 C11.9083072,22.5226293 16.261043,19.6950431 20.5838558,16.8868534 C17.1437732,15.7640086 13.7143773,14.6443966 10.2486463,13.5140086 L10.2486463,13.512931 Z M28.7784981,5.01616379 C25.0146053,5.64978448 21.3404816,6.26939655 17.619336,6.89547414 C18.8867911,10.0043103 20.1285979,13.0506466 21.4067398,16.1842672 C23.8785979,12.4396552 26.3012967,8.77047414 28.7795668,5.01616379 L28.7784981,5.01616379 Z M10.403605,12.7068966 C13.7934597,13.8168103 17.1149188,14.9040948 20.5336278,16.0226293 C19.2640353,12.9040948 18.0382588,9.89439655 16.7868339,6.82219828 C14.6548162,8.78771552 12.5559276,10.7230603 10.403605,12.7068966 L10.403605,12.7068966 Z M3.59397264,17.3383621 C2.39170704,20.2359914 1.23111998,23.0344828 0.0491593046,25.8836207 C2.32117412,25.8157328 4.52372471,25.75 6.80108293,25.6821121 C5.73133371,22.8997845 4.68295811,20.1713362 3.59397264,17.3372845 L3.59397264,17.3383621 Z M6.88016529,23.7015086 C6.90795098,23.6961207 6.93573668,23.6885776 6.96459105,23.6831897 C7.7746509,20.2844828 8.59753491,16.9084052 9.42576233,13.3760776 C7.57908236,14.34375 5.81789684,15.2661638 4.00862069,16.2155172 C4.93196067,18.6357759 5.91621545,21.1885776 6.88123397,23.7015086 L6.88016529,23.7015086 Z M27.4159305,4.46551724 C26.3376318,4.17780172 25.2593331,3.88900862 24.1810345,3.60237069 C22.630379,3.19181034 21.0786549,2.78556034 19.5290681,2.37068966 C19.3356369,2.31896552 19.1956398,2.28448276 19.081291,2.52047414 C18.5341265,3.65193966 17.9687945,4.77478448 17.4130806,5.90193966 C17.3959818,5.93642241 17.3991878,5.98168103 17.3863636,6.06896552 C20.7441579,5.55603448 24.0795098,5.04633621 27.4137931,4.53663793 C27.4148618,4.51293103 27.4148618,4.48922414 27.4159305,4.46551724 L27.4159305,4.46551724 Z M21.1609433,1.89224138 C24.0559989,2.70043103 26.9521231,3.5075431 29.9487033,4.34375 C29.4442861,2.89547414 28.9772727,1.55280172 28.4963665,0.171336207 C26.0351952,0.721982759 23.6050157,1.26508621 21.1737675,1.80818966 C21.1694927,1.8362069 21.165218,1.86314655 21.1609433,1.89116379 L21.1609433,1.89224138 Z M7.6261043,26.6928879 C6.53711884,26.5668103 5.42034768,26.6831897 4.31640068,26.7015086 C3.40909091,26.7176724 2.50284981,26.7521552 1.59660872,26.7801724 C1.50256483,26.7834052 1.40958963,26.8017241 1.31661442,26.9030172 C8.81340838,27.6023707 16.3102023,28.3006466 23.8059276,29 C23.811271,28.9665948 23.8155457,28.9321121 23.8208891,28.8987069 C21.4174266,28.5678879 19.0150328,28.237069 16.6115702,27.90625 C13.6171274,27.4935345 10.6280279,27.0409483 7.6261043,26.6918103 L7.6261043,26.6928879 Z M0.196637219,23.2758621 C1.16272442,21.0161638 2.12453691,18.7532328 3.09489883,16.4956897 C3.19214876,16.2693966 3.184668,16.1153017 2.99444286,15.9331897 C2.58834426,15.544181 2.21216871,15.1239224 1.76866629,14.6594828 C1.16913651,17.6443966 0.584568253,20.5538793 -2.22044605e-16,23.4644397 C0.0213736107,23.4741379 0.043815902,23.4849138 0.0651895127,23.4956897 C0.110074095,23.4234914 0.164576803,23.3545259 0.197705899,23.2769397 L0.196637219,23.2758621 Z M19.2362496,1.29525862 C20.8649188,0.871767241 22.5181676,0.53987069 24.1607296,0.170258621 C24.2665289,0.146551724 24.3712596,0.110991379 24.4759903,0.0808189655 C24.4706469,0.0538793103 24.4653035,0.0269396552 24.4599601,-4.4408921e-16 C22.1462667,0.313577586 19.8315047,0.628232759 17.4002565,0.957974138 C18.0628384,1.25 18.5736677,1.46767241 19.2362496,1.29633621 L19.2362496,1.29525862 Z" id="ruby" fill="#8AA1CA"></path>
    </g>
</svg>
