<?xml version="1.0" encoding="UTF-8" standalone="no"?>
<svg width="31px" height="24px" viewBox="0 0 31 24" version="1.1" xmlns="http://www.w3.org/2000/svg" xmlns:xlink="http://www.w3.org/1999/xlink">
    <title>Icon JavaScript</title>
    <defs></defs>
    <g id="icon-javascript" stroke="none" stroke-width="1" fill="none" fill-rule="evenodd">
        <path d="M7.25378361,1.059551 L12.2424789,1.059551 L12.2424789,15.1386148 C12.2424789,21.4831653 9.22213047,23.698 4.39702075,23.698 C3.21601263,23.698 1.70517343,23.4998165 0.721,23.1690643 L1.27958492,19.1036241 C1.96850632,19.3352846 2.85559237,19.4999912 3.83976579,19.4999912 C5.94110906,19.4999912 7.25378361,18.5412115 7.25378361,15.1051379 L7.25378361,1.059551 L7.25378361,1.059551 Z M16.574172,18.1796605 C17.8868465,18.8733027 19.9881898,19.5682841 22.1214522,19.5682841 C24.4196301,19.5682841 25.6338874,18.6095044 25.6338874,17.1231281 C25.6338874,15.7679814 24.5832157,14.9417704 21.9246175,14.0164676 C18.2485968,12.6947979 15.8200823,10.6460088 15.8200823,7.37330275 C15.8200823,3.573 19.0040164,0.698 24.1895463,0.698 C26.7164781,0.698 28.5225694,1.19345878 29.8352439,1.82148626 L28.719404,5.85344946 C27.8655671,5.4236055 26.2576405,4.79557802 24.1243781,4.79557802 C21.9578666,4.79557802 20.907195,5.81997252 20.907195,6.94345878 C20.907195,8.36422031 22.1214522,8.99224779 25.0101342,10.115734 C28.9162387,11.5699725 30.721,13.6187615 30.721,16.7910368 C30.721,20.5257247 27.8988162,23.698 21.8262002,23.698 C19.2992684,23.698 16.8042558,23.0043577 15.5567494,22.3093763 L16.574172,18.1783214 L16.574172,18.1796605 Z" id="javascript" fill="#8AA1CA"></path>
    </g>
</svg>
