<?xml version="1.0" encoding="UTF-8" standalone="no"?>
<svg width="21px" height="18px" viewBox="0 0 21 18" version="1.1" xmlns="http://www.w3.org/2000/svg" xmlns:xlink="http://www.w3.org/1999/xlink">
    <title>Icon quote</title>
    <defs></defs>
    <g id="icon-quote" stroke="none" stroke-width="1" fill="none" fill-rule="evenodd">
        <path d="M0.700939958,17.2898764 C1.17528295,17.7714545 1.74026472,18 2.41904853,18 L7.27930175,18 C7.95707846,18 8.52206023,17.7714545 8.99741032,17.2898764 C9.47175331,16.8093187 9.69734318,16.2369346 9.69734318,15.5492575 L9.69734318,10.6253259 C9.69734318,9.93866909 9.47175331,9.366285 8.99741032,8.88572724 C8.52206023,8.40414919 7.95707846,8.17560367 7.27930175,8.17560367 L4.45338577,8.17560367 C4.11399386,8.17560367 3.81992135,8.06133091 3.59433148,7.80931867 C3.34557836,7.57975286 3.23278343,7.28182746 3.23278343,6.93900918 L3.23278343,6.54925745 C3.23278343,5.6330348 3.54901209,4.87801837 4.1814694,4.23625439 C4.81493382,3.59551071 5.56119317,3.27411858 6.46556685,3.27411858 L7.2561385,3.27411858 C7.48273547,3.27411858 7.66300595,3.18331255 7.82112028,3.02210634 C7.97923461,2.86192042 8.06987339,2.67928806 8.06987339,2.44972225 L8.09303664,0.824396327 C8.09303664,0.594830518 8.00239785,0.412198163 7.84428352,0.252012244 C7.68616919,0.0908060311 7.48273547,0 7.27930175,0 L6.46556685,0 C5.58334932,0 4.74745828,0.182632355 3.95587953,0.526470922 C3.16530788,0.870309489 2.46436793,1.32842081 1.89837905,1.92325133 C1.31124113,2.49563542 0.859054287,3.20575898 0.519662383,4.00770888 C0.181277575,4.80863848 0,5.65650153 0,6.54925745 L0,15.5492575 C0,16.2369346 0.226596969,16.8093187 0.700939958,17.2898764 L0.700939958,17.2898764 Z M12.0035968,17.2898764 C12.4779398,17.7714545 13.0429215,18 13.7217054,18 L18.5809515,18 C19.2597353,18 19.8247171,17.7714545 20.29906,17.2898764 C20.7744101,16.8093187 21,16.2369346 21,15.5492575 L21,10.6253259 C21,9.93866909 20.7744101,9.366285 20.29906,8.88572724 C19.8247171,8.40414919 19.2597353,8.17560367 18.5809515,8.17560367 L15.7560426,8.17560367 C15.4166507,8.17560367 15.1225782,8.06133091 14.8969883,7.80931867 C14.6482352,7.57975286 14.5354402,7.28182746 14.5354402,6.93900918 L14.5354402,6.54925745 C14.5354402,5.6330348 14.8516689,4.87801837 15.4841262,4.23625439 C16.1175906,3.59551071 16.86385,3.27411858 17.7672166,3.27411858 L18.5587953,3.27411858 C18.7843852,3.27411858 18.9656628,3.18331255 19.1237771,3.02210634 C19.2818914,2.86192042 19.3725302,2.67928806 19.3725302,2.44972225 L19.3956935,0.824396327 C19.3956935,0.594830518 19.3050547,0.412198163 19.1469403,0.252012244 C18.9878189,0.0908060311 18.7843852,0 18.5809515,0 L17.7672166,0 C16.8860061,0 16.0501151,0.182632355 15.2585364,0.526470922 C14.4669576,0.870309489 13.7670247,1.32842081 13.2010359,1.92325133 C12.6138979,2.49563542 12.1617111,3.20575898 11.8223192,4.00770888 C11.4829273,4.80863848 11.3026568,5.65650153 11.3026568,6.54925745 L11.3026568,15.5492575 C11.3026568,16.2369346 11.5282467,16.8093187 12.0035968,17.2898764 L12.0035968,17.2898764 Z" id="quote" fill="#4F72B0"></path>
    </g>
</svg>
