<?xml version="1.0" encoding="UTF-8" standalone="no"?>
<svg width="30px" height="30px" viewBox="0 0 30 30" version="1.1" xmlns="http://www.w3.org/2000/svg" xmlns:xlink="http://www.w3.org/1999/xlink">
    <title>Icon Python</title>
    <defs></defs>
    <g id="icon-python" stroke="none" stroke-width="1" fill="none" fill-rule="evenodd">
        <path d="M11.3644623,14.4646286 L18.591837,14.4646286 C20.6038143,14.4646286 22.210194,12.8268365 22.210194,10.8274369 L22.210194,4.01232176 C22.210194,2.07231028 20.555783,0.615322057 18.591837,0.291986809 C17.3483603,0.0874277744 16.0595207,-0.00627346066 14.8227151,0.000325217864 C13.5859094,0.00692389639 12.403806,0.109863281 11.3644623,0.291986809 C8.30246772,0.82647977 7.7461053,1.94693538 7.7461053,4.01232176 L7.7461053,6.74021547 L14.9814852,6.74021547 L14.9814852,7.64951337 L5.02966912,7.64951337 C2.92696607,7.64951337 1.0857667,8.89930308 0.509391239,11.2787866 C-0.155041579,14.0053605 -0.184394033,15.7064998 0.509391239,18.5531698 C1.02305918,20.6726653 2.25185963,22.182443 4.35456269,22.182443 L6.84285025,22.182443 L6.84285025,18.9121379 C6.84285025,16.549811 8.90952984,14.4659483 11.3631281,14.4659483 L11.3644623,14.4646286 Z M10.9081651,4.92161966 C10.1583433,4.92161966 9.54994701,4.3132215 9.54994701,3.56229189 C9.54994701,2.80740306 10.1570091,2.19372596 10.9081651,2.19372596 C11.6553185,2.19372596 12.2663832,2.80740306 12.2663832,3.56229189 C12.2663832,4.31454124 11.6566527,4.92161966 10.9081651,4.92161966 L10.9081651,4.92161966 Z M29.4442397,11.2774668 C28.9252349,9.2068015 27.9325883,7.64819363 25.8258826,7.64819363 L23.1107807,7.64819363 L23.1107807,10.8261172 C23.1107807,13.2900638 20.9987382,15.3646883 18.5905028,15.3646883 L11.3631281,15.3646883 C9.3831717,15.3646883 7.7447711,17.0407526 7.7447711,19.0018799 L7.7447711,25.8169951 C7.7447711,27.7570066 9.44988183,28.8972582 11.3631281,29.4541867 C13.6539537,30.1206532 15.850051,30.2407492 18.5905028,29.4541867 C20.4116891,28.9328911 22.2088598,27.8823815 22.2088598,25.8169951 L22.2088598,23.0891014 L14.9814852,23.0891014 L14.9814852,22.1798035 L25.8272168,22.1798035 C27.9299199,22.1798035 28.7130967,20.7294139 29.4455739,18.5505303 C30.2007325,16.3082993 30.1687116,14.1531709 29.4455739,11.2761471 L29.4442397,11.2774668 Z M19.0468,24.9090169 C19.7966218,24.9090169 20.4050181,25.5174151 20.4050181,26.2683447 C20.4050181,27.0232335 19.7966218,27.6369106 19.0468,27.6369106 C18.2996466,27.6369106 17.6885819,27.0232335 17.6885819,26.2683447 C17.6885819,25.5160953 18.2983124,24.9090169 19.0468,24.9090169 L19.0468,24.9090169 Z" id="python" fill="#8AA1CA"></path>
    </g>
</svg>
