<?xml version="1.0" encoding="UTF-8" standalone="no"?>
<svg width="30px" height="31px" viewBox="0 0 30 31" version="1.1" xmlns="http://www.w3.org/2000/svg" xmlns:xlink="http://www.w3.org/1999/xlink">
    <title>Icon Google+</title>
    <defs></defs>
    <g id="icon-googleplus" stroke="none" stroke-width="1" fill="none" fill-rule="evenodd">
        <path d="M1.16095302,26.9859677 C1.85090605,28.1497298 2.90414644,28.9577379 4.28405248,29.4748054 C5.6976505,29.9601864 7.21085957,30.218 8.82221483,30.218 C10.7617006,30.218 12.5708131,29.862246 14.2803145,29.1838649 C15.989816,28.5054838 17.2715758,27.4065352 18.1592861,25.9503923 C18.7510929,24.9493841 19.0469964,23.9138087 19.0469964,22.8148601 C19.0469964,21.8772251 18.850704,21.0375305 18.4551895,20.261209 C18.0611399,19.4848875 17.6011712,18.8713199 17.0415915,18.3859389 C16.5157037,17.9019983 15.956124,17.4814308 15.3980091,17.0608633 C14.8384294,16.6734227 14.3462336,16.2528552 13.9507191,15.8639744 C13.5566695,15.4448472 13.3589123,15.0242797 13.3589123,14.5720256 C13.3589123,14.1831448 13.5244424,13.7957042 13.8203459,13.4082636 C14.1162493,13.0193827 14.4766069,12.6319421 14.9043485,12.2761881 C15.3320901,11.9204341 15.7598316,11.5329935 16.1875732,11.112426 C16.6138499,10.6918586 16.9756724,10.1431044 17.2715758,9.43159643 C17.5674793,8.75177503 17.7330094,7.97689385 17.7330094,7.1040723 C17.7330094,6.00512372 17.5015602,5.06748869 17.0415915,4.22635374 C16.5816228,3.38521878 15.8916698,2.57721072 14.9702676,1.80232954 L17.3711869,1.80232954 L19.9024795,0.218 L12.2412177,0.218 C10.8598468,0.218 9.54439496,0.411000144 8.23040799,0.799881031 C6.94718326,1.18732162 5.82948866,1.76920265 4.87585932,2.57721072 C4.11998722,3.22390523 3.52818038,4.0002267 3.0682117,4.93786173 C2.64047012,5.87549676 2.41048578,6.81313179 2.41048578,7.8155803 C2.41048578,9.59290998 3.03451973,11.0476126 4.28405248,12.2113746 C5.50135814,13.3751367 7.04679431,13.9570177 8.85444194,13.9570177 C9.11811825,13.9570177 9.54439496,13.9253311 10.1039747,13.8922042 C9.84176325,14.4740853 9.70992509,14.9594662 9.70992509,15.4117203 C9.70992509,15.8971013 9.80807127,16.3176687 10.0058285,16.7051093 C10.1698938,17.0925499 10.4657972,17.5462443 10.8598468,18.0633118 C7.5389901,18.256312 5.07361656,18.8713199 3.4622613,19.8406415 C2.54232394,20.3908359 1.81867894,21.1023439 1.29279118,21.910352 C0.733211446,22.7500467 0.471,23.6559951 0.471,24.6253167 C0.471,25.4664517 0.700984341,26.2744597 1.16095302,26.9859677 L1.16095302,26.9859677 Z M4.38366353,21.910352 C4.71179406,21.328471 5.13953564,20.8747766 5.63319629,20.5521495 C6.15908405,20.2295224 6.75089089,19.9385819 7.40861681,19.7124548 C8.09856983,19.5180144 8.75629575,19.3567008 9.3803297,19.2587605 C10.0058285,19.193947 10.6635544,19.1622604 11.3212803,19.1622604 C11.6831028,19.1622604 11.9790063,19.1622604 12.1752986,19.193947 C12.2089906,19.193947 12.4389749,19.3567008 12.8667165,19.6476414 C13.2607661,19.9385819 13.5244424,20.131582 13.6225886,20.1963955 C13.7207348,20.261209 13.9507191,20.4225225 14.3125416,20.7134631 C14.642137,21.0044036 14.8721214,21.198844 15.0039595,21.328471 C15.1343328,21.4897845 15.299863,21.684225 15.5620744,21.9751655 C15.7920587,22.2329791 15.956124,22.492233 16.0557351,22.7183601 C16.1538812,22.9444871 16.2198003,23.1706141 16.3179465,23.4615547 C16.4175576,23.7524952 16.4497847,24.0434357 16.4497847,24.3675031 C16.4497847,25.1106977 16.2857194,25.7573922 15.956124,26.3061463 C15.5957664,26.8880274 15.1680248,27.3085948 14.6084451,27.6326622 C14.0503302,27.9552894 13.4248314,28.1814164 12.7671055,28.3427299 C12.1093796,28.5054838 11.4194265,28.5702973 10.7294735,28.5702973 C9.93990943,28.5702973 9.15034536,28.4723569 8.39447325,28.3110434 C7.60490918,28.1497298 6.88126418,27.8587893 6.19131116,27.5030353 C5.50135814,27.1472813 4.9417784,26.6619003 4.51403682,26.0166461 C4.08776012,25.3685113 3.89000288,24.6253167 3.89000288,23.7856221 C3.89000288,23.0741141 4.05406814,22.4591062 4.38366353,21.910352 L4.38366353,21.910352 Z M6.68497181,2.99777819 C6.98087523,2.61033761 7.40861681,2.2862702 7.9008126,2.06014317 C8.39447325,1.83401613 8.88813391,1.70438917 9.41402167,1.70438917 C10.1698938,1.70438917 10.8935388,1.96364309 11.5512647,2.44758375 C12.2089906,2.93296471 12.7348784,3.54797263 13.0967009,4.32285381 C13.4907505,5.06748869 13.7866539,5.84236987 13.9844111,6.65037793 C14.2143955,7.4598263 14.3125416,8.20302088 14.3125416,8.91452888 C14.3125416,10.1099775 13.9844111,11.0792992 13.3266852,11.7591206 C13.0307818,12.0817477 12.6030402,12.3410016 12.1093796,12.535442 C11.6171838,12.7615691 11.1557502,12.8580691 10.6957815,12.8580691 C10.0380556,12.8580691 9.44624878,12.6967556 8.92036101,12.3726882 C8.36224615,12.0817477 7.9008126,11.6626205 7.5389901,11.1772395 C7.1771676,10.6918586 6.84903708,10.1099775 6.58536076,9.49640991 C6.32314932,8.88140199 6.12539208,8.26783437 6.0272459,7.65282644 C5.89540774,7.03925882 5.82948866,6.4242509 5.82948866,5.87549676 C5.82948866,4.67860781 6.12539208,3.70928619 6.68497181,2.99777819 L6.68497181,2.99777819 Z M23.6510778,14.7333392 L23.6510778,18.6768794 L25.5905636,18.6768794 L25.5905636,14.7333392 L29.471,14.7333392 L29.471,12.7932557 L25.5905636,12.7932557 L25.5905636,8.88140199 L23.6510778,8.88140199 L23.6510778,12.7932557 L19.8043333,12.7932557 L19.8043333,14.7333392 L23.6510778,14.7333392 L23.6510778,14.7333392 Z" id="googleplus" fill="#FFFFFF"></path>
    </g>
</svg>
