<?xml version="1.0" encoding="UTF-8" standalone="no"?>
<svg width="30px" height="30px" viewBox="0 0 30 30" version="1.1" xmlns="http://www.w3.org/2000/svg" xmlns:xlink="http://www.w3.org/1999/xlink">
    <title>Icon Github</title>
    <defs></defs>
    <g id="icon-github" stroke="none" stroke-width="1" fill="none" fill-rule="evenodd">
        <path d="M3.64396548,24.4736293 C5.47116448,27.0747789 7.87426284,28.8784281 10.7839114,29.8505749 C11.1231192,29.9201243 11.3598108,29.8845768 11.5286608,29.711476 C11.6975109,29.572377 11.7653525,29.3652742 11.7653525,29.1566259 L11.7653525,28.1149296 L11.7653525,26.3808299 L11.3251362,26.4503793 C11.0552776,26.5199288 10.7160699,26.5199288 10.2773612,26.5199288 C9.87031192,26.5199288 9.43009565,26.4859268 8.95671241,26.3808299 C8.51649615,26.3112804 8.07778748,26.1041776 7.70541277,25.7919778 C7.29836349,25.51378 7.02850489,25.0980288 6.85965481,24.6111827 L6.68929715,24.1614295 C6.55512165,23.8832317 6.35159701,23.53703 6.08023082,23.1892827 C5.81037222,22.8075335 5.53900603,22.5648832 5.26914743,22.4613318 L5.13346434,22.3577803 C5.03245581,22.2882309 4.96461426,22.2186814 4.89677272,22.1135845 C4.82893117,22.0455806 4.76108962,21.9404836 4.72641506,21.8369322 C4.69324808,21.7673828 4.72641506,21.6978333 4.82893117,21.6282838 C4.89677272,21.5587344 5.09878977,21.5247324 5.37015596,21.5247324 L5.74253067,21.5942819 C5.97922229,21.6638313 6.31692244,21.8013847 6.65613017,22.0455806 C7.02850489,22.3222328 7.33303805,22.6699801 7.60289665,23.0501838 C7.87426284,23.6065794 8.21196299,23.9867831 8.65217925,24.2649809 C9.05922853,24.5431787 9.46477022,24.6807321 9.87031192,24.6807321 C10.2773612,24.6807321 10.6482283,24.6467302 10.9542691,24.6111827 C11.2572947,24.5431787 11.5286608,24.4380818 11.800027,24.2989829 C11.9010356,23.431933 12.2055687,22.7735315 12.7136265,22.3222328 C12.0020441,22.2186814 11.3598108,22.1135845 10.7839114,21.9760311 C10.2095197,21.8013847 9.6336203,21.5587344 9.02455396,21.2125327 C8.41548763,20.8647854 7.90742982,20.4150323 7.50188813,19.9281861 C7.09634643,19.4088835 6.7571387,18.7149345 6.4872801,17.8818866 C6.25058848,17.0488387 6.11490539,16.0782374 6.11490539,14.9685372 C6.11490539,13.4075384 6.62296319,12.0891898 7.60289665,10.9779441 C7.12951341,9.79869447 7.19735496,8.48034593 7.73857975,7.02444403 C8.11095446,6.91934707 8.65217925,7.02444403 9.3637617,7.3010963 C10.0738366,7.57929412 10.6150613,7.82194443 10.9542691,8.02904725 C11.2572947,8.23769561 11.5286608,8.41079648 11.7321855,8.58544288 C12.9156436,8.23769561 14.1337763,8.06459475 15.3865835,8.06459475 C16.6047162,8.06459475 17.8228488,8.23769561 19.0078145,8.58544288 L19.7178894,8.09859671 C20.1912726,7.78639693 20.8003389,7.50974466 21.4440799,7.26709434 C22.1209877,6.98889653 22.6275379,6.91934707 22.9667457,7.02444403 C23.5411375,8.48034593 23.608979,9.79869447 23.1355958,10.9779441 C24.1170368,12.0891898 24.6250946,13.4075384 24.6250946,14.9685372 C24.6250946,16.0782374 24.4894115,17.0488387 24.2527199,17.8818866 C23.9813537,18.7489364 23.6436536,19.4088835 23.2366043,19.9281861 C22.8310626,20.4150323 22.3230048,20.8647854 21.7139384,21.2125327 C21.1048721,21.5587344 20.4958058,21.8013847 19.921414,21.9760311 C19.3455147,22.1135845 18.7032813,22.2186814 17.9916989,22.3222328 C18.6354398,22.8770829 18.9731399,23.8136822 18.9731399,25.0624813 L18.9731399,29.1566259 C18.9731399,29.3652742 19.0409815,29.572377 19.2098316,29.711476 C19.3801892,29.8845768 19.6168808,29.9201243 19.954581,29.8505749 C22.8642296,28.8784281 25.2673279,27.0747789 27.0945269,24.4736293 C28.9564005,21.9064817 29.87,18.9915868 29.87,15.7660376 C29.87,13.0597911 29.2262591,10.5621929 27.9402849,8.27324311 C26.6211437,6.01829526 24.8617862,4.21310054 22.6622125,2.86075004 C20.4279642,1.5424015 17.9916989,0.884 15.3865835,0.884 C12.7467935,0.884 10.3105282,1.5424015 8.07778748,2.86075004 C5.87821377,4.21310054 4.11885631,6.01829526 2.79820753,8.27324311 C1.51223331,10.5621929 0.87,13.0597911 0.87,15.7660376 C0.87,18.9915868 1.7835995,21.9064817 3.64396548,24.4736293" id="github" fill="#FFFFFF"></path>
    </g>
</svg>
