<?xml version="1.0" encoding="UTF-8" standalone="no"?>
<svg width="30px" height="29px" viewBox="0 0 30 29" version="1.1" xmlns="http://www.w3.org/2000/svg" xmlns:xlink="http://www.w3.org/1999/xlink">
    <title>Icon Linkedin</title>
    <defs></defs>
    <g id="icon-linkedin" stroke="none" stroke-width="1" fill="none" fill-rule="evenodd">
        <path d="M1.81568491,5.97170184 C2.42405546,6.58705298 3.2703531,6.89472855 4.28380206,6.89472855 L4.31843701,6.89472855 C5.39965002,6.89472855 6.24444179,6.58705298 6.88594143,5.97170184 C7.52894693,5.32131834 7.8331322,4.56888402 7.8331322,3.61234809 C7.8331322,2.68932138 7.49431197,1.90337785 6.88594143,1.28802671 C6.27757088,0.67267557 5.4327791,0.365 4.38469519,0.365 C3.33661128,0.365 2.4918195,0.67267557 1.85031987,1.28802671 C1.20731436,1.90337785 0.87,2.68932138 0.87,3.61234809 C0.87,4.56888402 1.17418527,5.32131834 1.81568491,5.97170184 L1.81568491,5.97170184 Z M1.24194932,28.365 L7.46118289,28.365 L7.46118289,9.49321629 L1.24194932,9.49321629 L1.24194932,28.365 Z M17.0942185,28.365 L17.0942185,17.8339659 C17.0942185,17.1851055 17.1619826,16.6718052 17.2975106,16.295588 C17.567061,15.6467277 17.9736452,15.0999181 18.5142517,14.6551594 C19.0202233,14.2104006 19.6963579,14.0047759 20.5080206,14.0047759 C21.5892336,14.0047759 22.3662613,14.380993 22.8737387,15.1334274 C23.3812161,15.8858617 23.6507664,16.9459715 23.6507664,18.2787246 L23.6507664,28.365 L29.87,28.365 L29.87,17.5613227 C29.87,14.7572102 29.2285004,12.6385136 27.9108661,11.2021865 C26.591726,9.76585949 24.8675075,9.04845754 22.7050815,9.04845754 C21.9280538,9.04845754 21.1841552,9.15050835 20.5411497,9.35613311 C19.89965,9.52672551 19.3590435,9.80089186 18.8862011,10.1755859 C18.4464877,10.5182938 18.1076675,10.8594786 17.8381171,11.1686773 C17.567061,11.4748297 17.2975106,11.8175377 17.0595835,12.227264 L17.0942185,12.227264 L17.0942185,9.49321629 L10.8749849,9.49321629 L10.908114,10.416243 L10.908114,16.0564541 C10.908114,19.2017513 10.908114,23.3051077 10.8749849,28.365 L17.0942185,28.365 L17.0942185,28.365 Z" id="linkedin" fill="#FFFFFF"></path>
    </g>
</svg>
