<?xml version="1.0" encoding="UTF-8" standalone="no"?>
<svg width="18px" height="23px" viewBox="0 0 18 23" version="1.1" xmlns="http://www.w3.org/2000/svg" xmlns:xlink="http://www.w3.org/1999/xlink">
    <title>Icon Company</title>
    <defs></defs>
    <g id="icon-company" stroke="none" stroke-width="1" fill="none" fill-rule="evenodd">
        <path d="M1.10801156,22.5119079 C1.25929827,22.6657883 1.43274799,22.754 1.64859653,22.754 L17.0914035,22.754 C17.3082156,22.754 17.4807017,22.6657883 17.6319884,22.5119079 C17.7842387,22.3580274 17.87,22.181604 17.87,21.9620549 L17.87,1.54594511 C17.87,1.32639597 17.7842387,1.14997256 17.6319884,0.97354914 C17.4807017,0.819668716 17.3082156,0.754 17.0914035,0.754 L1.64859653,0.754 C1.43274799,0.754 1.25929827,0.819668716 1.10801156,0.97354914 C0.956724861,1.14997256 0.87,1.32639597 0.87,1.54594511 L0.87,21.9620549 C0.87,22.181604 0.956724861,22.3580274 1.10801156,22.5119079 L1.10801156,22.5119079 Z M3.96318671,16.8575374 C3.96318671,16.7477628 4.00654914,16.6595511 4.07111099,16.5713394 C4.13567283,16.5056707 4.24456071,16.4615648 4.35248498,16.4615648 L5.10891849,16.4615648 C5.23900578,16.4615648 5.32573064,16.5056707 5.39029248,16.5713394 C5.47701734,16.6595511 5.49821676,16.7477628 5.49821676,16.8575374 L5.49821676,17.6494825 C5.49821676,17.7602372 5.47701734,17.8474688 5.39029248,17.9356805 C5.32573064,18.0013492 5.23900578,18.045455 5.10891849,18.045455 L4.35248498,18.045455 C4.24456071,18.045455 4.13567283,18.0013492 4.07111099,17.9356805 C4.00654914,17.8474688 3.96318671,17.7602372 3.96318671,17.6494825 L3.96318671,16.8575374 L3.96318671,16.8575374 Z M3.96318671,13.7113198 C3.96318671,13.6015452 4.00654914,13.5133335 4.07111099,13.4261019 C4.13567283,13.3594531 4.24456071,13.3153472 4.35248498,13.3153472 L5.10891849,13.3153472 C5.23900578,13.3153472 5.32573064,13.3594531 5.39029248,13.4261019 C5.47701734,13.5133335 5.49821676,13.6015452 5.49821676,13.7113198 L5.49821676,14.504245 C5.49821676,14.6140196 5.47701734,14.7022313 5.39029248,14.7894629 C5.32573064,14.8561117 5.23900578,14.9002176 5.10891849,14.9002176 L4.35248498,14.9002176 C4.24456071,14.9002176 4.13567283,14.8561117 4.07111099,14.7894629 C4.00654914,14.7022313 3.96318671,14.6140196 3.96318671,14.504245 L3.96318671,13.7113198 L3.96318671,13.7113198 Z M3.96318671,10.5660823 C3.96318671,10.4563078 4.00654914,10.3680961 4.07111099,10.2798843 C4.13567283,10.2142156 4.24456071,10.1701098 4.35248498,10.1701098 L5.10891849,10.1701098 C5.23900578,10.1701098 5.32573064,10.2142156 5.39029248,10.2798843 C5.47701734,10.3680961 5.49821676,10.4563078 5.49821676,10.5660823 L5.49821676,11.3580274 C5.49821676,11.467802 5.47701734,11.5560137 5.39029248,11.6442254 C5.32573064,11.7098941 5.23900578,11.754 5.10891849,11.754 L4.35248498,11.754 C4.24456071,11.754 4.13567283,11.7098941 4.07111099,11.6442254 C4.00654914,11.5560137 3.96318671,11.467802 3.96318671,11.3580274 L3.96318671,10.5660823 L3.96318671,10.5660823 Z M3.96318671,7.41986474 C3.96318671,7.31009017 4.00654914,7.22187846 4.07111099,7.15620975 C4.13567283,7.06799804 4.24456071,7.04545505 4.35248498,7.04545505 L5.10891849,7.04545505 C5.23900578,7.04545505 5.32573064,7.06799804 5.39029248,7.15620975 C5.47701734,7.22187846 5.49821676,7.31009017 5.49821676,7.41986474 L5.49821676,8.21180985 C5.49821676,8.32158442 5.47701734,8.43233913 5.39029248,8.49800784 C5.32573064,8.56367656 5.23900578,8.60778241 5.10891849,8.60778241 L4.35248498,8.60778241 C4.24456071,8.60778241 4.13567283,8.56367656 4.07111099,8.49800784 C4.00654914,8.43233913 3.96318671,8.32158442 3.96318671,8.21180985 L3.96318671,7.41986474 L3.96318671,7.41986474 Z M3.96318671,4.29619015 C3.96318671,4.16387258 4.00654914,4.07566087 4.07111099,4.00999216 C4.13567283,3.92178045 4.24456071,3.90021759 4.35248498,3.90021759 L5.10891849,3.90021759 C5.23900578,3.90021759 5.32573064,3.92178045 5.39029248,4.00999216 C5.47701734,4.07566087 5.49821676,4.16387258 5.49821676,4.29619015 L5.49821676,5.06559227 C5.49821676,5.17634697 5.47701734,5.28612154 5.39029248,5.35179025 C5.32573064,5.4184391 5.23900578,5.46156482 5.10891849,5.46156482 L4.35248498,5.46156482 C4.24456071,5.46156482 4.13567283,5.4184391 4.07111099,5.35179025 C4.00654914,5.28612154 3.96318671,5.17634697 3.96318671,5.06559227 L3.96318671,4.29619015 L3.96318671,4.29619015 Z M7.1642977,18.1562097 C7.22885954,18.067998 7.3155844,18.045455 7.44470808,18.045455 L11.2952919,18.045455 C11.4032162,18.045455 11.5111405,18.067998 11.5766659,18.1562097 C11.6412278,18.2218785 11.6845902,18.3100902 11.6845902,18.4198647 L11.6845902,20.7957001 C11.6845902,20.9054747 11.6412278,20.9936864 11.5766659,21.0593551 C11.5111405,21.1475668 11.4032162,21.1701098 11.2952919,21.1701098 L7.44470808,21.1701098 C7.3155844,21.1701098 7.22885954,21.1475668 7.1642977,21.0593551 C7.07757284,20.9936864 7.05637343,20.9054747 7.05637343,20.7957001 L7.05637343,18.4198647 C7.05637343,18.3100902 7.07757284,18.2218785 7.1642977,18.1562097 L7.1642977,18.1562097 Z M7.05637343,13.7113198 C7.05637343,13.6015452 7.07757284,13.5133335 7.1642977,13.4261019 C7.22885954,13.3594531 7.3155844,13.3153472 7.44470808,13.3153472 L8.2021052,13.3153472 C8.31002948,13.3153472 8.41891736,13.3594531 8.4834792,13.4261019 C8.54804104,13.5133335 8.59140347,13.6015452 8.59140347,13.7113198 L8.59140347,14.504245 C8.59140347,14.6140196 8.54804104,14.7022313 8.4834792,14.7894629 C8.41891736,14.8561117 8.31002948,14.9002176 8.2021052,14.9002176 L7.44470808,14.9002176 C7.3155844,14.9002176 7.22885954,14.8561117 7.1642977,14.7894629 C7.07757284,14.7022313 7.05637343,14.6140196 7.05637343,14.504245 L7.05637343,13.7113198 L7.05637343,13.7113198 Z M7.05637343,10.5660823 C7.05637343,10.4563078 7.07757284,10.3680961 7.1642977,10.2798843 C7.22885954,10.2142156 7.3155844,10.1701098 7.44470808,10.1701098 L8.2021052,10.1701098 C8.31002948,10.1701098 8.41891736,10.2142156 8.4834792,10.2798843 C8.54804104,10.3680961 8.59140347,10.4563078 8.59140347,10.5660823 L8.59140347,11.3580274 C8.59140347,11.467802 8.54804104,11.5560137 8.4834792,11.6442254 C8.41891736,11.7098941 8.31002948,11.754 8.2021052,11.754 L7.44470808,11.754 C7.3155844,11.754 7.22885954,11.7098941 7.1642977,11.6442254 C7.07757284,11.5560137 7.05637343,11.467802 7.05637343,11.3580274 L7.05637343,10.5660823 L7.05637343,10.5660823 Z M7.05637343,7.41986474 C7.05637343,7.31009017 7.07757284,7.22187846 7.1642977,7.15620975 C7.22885954,7.06799804 7.3155844,7.04545505 7.44470808,7.04545505 L8.2021052,7.04545505 C8.31002948,7.04545505 8.41891736,7.06799804 8.4834792,7.15620975 C8.54804104,7.22187846 8.59140347,7.31009017 8.59140347,7.41986474 L8.59140347,8.21180985 C8.59140347,8.32158442 8.54804104,8.43233913 8.4834792,8.49800784 C8.41891736,8.56367656 8.31002948,8.60778241 8.2021052,8.60778241 L7.44470808,8.60778241 C7.3155844,8.60778241 7.22885954,8.56367656 7.1642977,8.49800784 C7.07757284,8.43233913 7.05637343,8.32158442 7.05637343,8.21180985 L7.05637343,7.41986474 L7.05637343,7.41986474 Z M7.05637343,4.29619015 C7.05637343,4.16387258 7.07757284,4.07566087 7.1642977,4.00999216 C7.22885954,3.92178045 7.3155844,3.90021759 7.44470808,3.90021759 L8.2021052,3.90021759 C8.31002948,3.90021759 8.41891736,3.92178045 8.4834792,4.00999216 C8.54804104,4.07566087 8.59140347,4.16387258 8.59140347,4.29619015 L8.59140347,5.06559227 C8.59140347,5.17634697 8.54804104,5.28612154 8.4834792,5.35179025 C8.41891736,5.4184391 8.31002948,5.46156482 8.2021052,5.46156482 L7.44470808,5.46156482 C7.3155844,5.46156482 7.22885954,5.4184391 7.1642977,5.35179025 C7.07757284,5.28612154 7.05637343,5.17634697 7.05637343,5.06559227 L7.05637343,4.29619015 L7.05637343,4.29619015 Z M10.1485965,13.7113198 C10.1485965,13.6015452 10.1707596,13.5133335 10.2565208,13.4261019 C10.3220463,13.3594531 10.4087711,13.3153472 10.5166954,13.3153472 L11.2952919,13.3153472 C11.4032162,13.3153472 11.5111405,13.3594531 11.5766659,13.4261019 C11.6412278,13.5133335 11.6845902,13.6015452 11.6845902,13.7113198 L11.6845902,14.504245 C11.6845902,14.6140196 11.6412278,14.7022313 11.5766659,14.7894629 C11.5111405,14.8561117 11.4032162,14.9002176 11.2952919,14.9002176 L10.5166954,14.9002176 C10.4087711,14.9002176 10.3220463,14.8561117 10.2565208,14.7894629 C10.1707596,14.7022313 10.1485965,14.6140196 10.1485965,14.504245 L10.1485965,13.7113198 L10.1485965,13.7113198 Z M10.1485965,10.5660823 C10.1485965,10.4563078 10.1707596,10.3680961 10.2565208,10.2798843 C10.3220463,10.2142156 10.4087711,10.1701098 10.5166954,10.1701098 L11.2952919,10.1701098 C11.4032162,10.1701098 11.5111405,10.2142156 11.5766659,10.2798843 C11.6412278,10.3680961 11.6845902,10.4563078 11.6845902,10.5660823 L11.6845902,11.3580274 C11.6845902,11.467802 11.6412278,11.5560137 11.5766659,11.6442254 C11.5111405,11.7098941 11.4032162,11.754 11.2952919,11.754 L10.5166954,11.754 C10.4087711,11.754 10.3220463,11.7098941 10.2565208,11.6442254 C10.1707596,11.5560137 10.1485965,11.467802 10.1485965,11.3580274 L10.1485965,10.5660823 L10.1485965,10.5660823 Z M10.1485965,7.41986474 C10.1485965,7.31009017 10.1707596,7.22187846 10.2565208,7.15620975 C10.3220463,7.06799804 10.4087711,7.04545505 10.5166954,7.04545505 L11.2952919,7.04545505 C11.4032162,7.04545505 11.5111405,7.06799804 11.5766659,7.15620975 C11.6412278,7.22187846 11.6845902,7.31009017 11.6845902,7.41986474 L11.6845902,8.21180985 C11.6845902,8.32158442 11.6412278,8.43233913 11.5766659,8.49800784 C11.5111405,8.56367656 11.4032162,8.60778241 11.2952919,8.60778241 L10.5166954,8.60778241 C10.4087711,8.60778241 10.3220463,8.56367656 10.2565208,8.49800784 C10.1707596,8.43233913 10.1485965,8.32158442 10.1485965,8.21180985 L10.1485965,7.41986474 L10.1485965,7.41986474 Z M10.1485965,4.29619015 C10.1485965,4.16387258 10.1707596,4.07566087 10.2565208,4.00999216 C10.3220463,3.92178045 10.4087711,3.90021759 10.5166954,3.90021759 L11.2952919,3.90021759 C11.4032162,3.90021759 11.5111405,3.92178045 11.5766659,4.00999216 C11.6412278,4.07566087 11.6845902,4.16387258 11.6845902,4.29619015 L11.6845902,5.06559227 C11.6845902,5.17634697 11.6412278,5.28612154 11.5766659,5.35179025 C11.5111405,5.4184391 11.4032162,5.46156482 11.2952919,5.46156482 L10.5166954,5.46156482 C10.4087711,5.46156482 10.3220463,5.4184391 10.2565208,5.35179025 C10.1707596,5.28612154 10.1485965,5.17634697 10.1485965,5.06559227 L10.1485965,4.29619015 L10.1485965,4.29619015 Z M13.2205838,16.8575374 C13.2205838,16.7477628 13.2629827,16.6595511 13.3285081,16.5713394 C13.415233,16.5056707 13.5009942,16.4615648 13.6089185,16.4615648 L14.3884786,16.4615648 C14.4964029,16.4615648 14.5831278,16.5056707 14.668889,16.5713394 C14.7344145,16.6595511 14.7777769,16.7477628 14.7777769,16.8575374 L14.7777769,17.6494825 C14.7777769,17.7602372 14.7344145,17.8474688 14.668889,17.9356805 C14.5831278,18.0013492 14.4964029,18.045455 14.3884786,18.045455 L13.6089185,18.045455 C13.5009942,18.045455 13.415233,18.0013492 13.3285081,17.9356805 C13.2629827,17.8474688 13.2205838,17.7602372 13.2205838,17.6494825 L13.2205838,16.8575374 L13.2205838,16.8575374 Z M13.2205838,13.7113198 C13.2205838,13.6015452 13.2629827,13.5133335 13.3285081,13.4261019 C13.415233,13.3594531 13.5009942,13.3153472 13.6089185,13.3153472 L14.3884786,13.3153472 C14.4964029,13.3153472 14.5831278,13.3594531 14.668889,13.4261019 C14.7344145,13.5133335 14.7777769,13.6015452 14.7777769,13.7113198 L14.7777769,14.504245 C14.7777769,14.6140196 14.7344145,14.7022313 14.668889,14.7894629 C14.5831278,14.8561117 14.4964029,14.9002176 14.3884786,14.9002176 L13.6089185,14.9002176 C13.5009942,14.9002176 13.415233,14.8561117 13.3285081,14.7894629 C13.2629827,14.7022313 13.2205838,14.6140196 13.2205838,14.504245 L13.2205838,13.7113198 L13.2205838,13.7113198 Z M13.2205838,10.5660823 C13.2205838,10.4563078 13.2629827,10.3680961 13.3285081,10.2798843 C13.415233,10.2142156 13.5009942,10.1701098 13.6089185,10.1701098 L14.3884786,10.1701098 C14.4964029,10.1701098 14.5831278,10.2142156 14.668889,10.2798843 C14.7344145,10.3680961 14.7777769,10.4563078 14.7777769,10.5660823 L14.7777769,11.3580274 C14.7777769,11.467802 14.7344145,11.5560137 14.668889,11.6442254 C14.5831278,11.7098941 14.4964029,11.754 14.3884786,11.754 L13.6089185,11.754 C13.5009942,11.754 13.415233,11.7098941 13.3285081,11.6442254 C13.2629827,11.5560137 13.2205838,11.467802 13.2205838,11.3580274 L13.2205838,10.5660823 L13.2205838,10.5660823 Z M13.2205838,7.41986474 C13.2205838,7.31009017 13.2629827,7.22187846 13.3285081,7.15620975 C13.415233,7.06799804 13.5009942,7.04545505 13.6089185,7.04545505 L14.3884786,7.04545505 C14.4964029,7.04545505 14.5831278,7.06799804 14.668889,7.15620975 C14.7344145,7.22187846 14.7777769,7.31009017 14.7777769,7.41986474 L14.7777769,8.21180985 C14.7777769,8.32158442 14.7344145,8.43233913 14.668889,8.49800784 C14.5831278,8.56367656 14.4964029,8.60778241 14.3884786,8.60778241 L13.6089185,8.60778241 C13.5009942,8.60778241 13.415233,8.56367656 13.3285081,8.49800784 C13.2629827,8.43233913 13.2205838,8.32158442 13.2205838,8.21180985 L13.2205838,7.41986474 L13.2205838,7.41986474 Z M13.2205838,4.29619015 C13.2205838,4.16387258 13.2629827,4.07566087 13.3285081,4.00999216 C13.415233,3.92178045 13.5009942,3.90021759 13.6089185,3.90021759 L14.3884786,3.90021759 C14.4964029,3.90021759 14.5831278,3.92178045 14.668889,4.00999216 C14.7344145,4.07566087 14.7777769,4.16387258 14.7777769,4.29619015 L14.7777769,5.06559227 C14.7777769,5.17634697 14.7344145,5.28612154 14.668889,5.35179025 C14.5831278,5.4184391 14.4964029,5.46156482 14.3884786,5.46156482 L13.6089185,5.46156482 C13.5009942,5.46156482 13.415233,5.4184391 13.3285081,5.35179025 C13.2629827,5.28612154 13.2205838,5.17634697 13.2205838,5.06559227 L13.2205838,4.29619015 L13.2205838,4.29619015 Z" id="company" fill="#45C7FD"></path>
    </g>
</svg>
