<svg xmlns="http://www.w3.org/2000/svg" viewBox="-525.3 792.7 2017.7 1520.3" style="enable-background:new -525.3 792.7 2017.7 1520.3;"><style><![CDATA[.J{fill:#EEF1C1}]]></style><path class="J" d="M1410.1 1952.2c-2.4-.1-3.2 1.9-4.2 3.7s-1.5 4.1-3.9 6c-.2-5.9 4.8-9.5 4.4-14.7.6-.2.6-.4.2-.5-.1 0-.2.3-.2.5-2.9 1.1-2.7 4.9-4.9 6.6-2.3-4.8-1.8-7.3 2.3-11.4 1.5-1.6 3.2-3 4.8-4.5 1-1 1.5-2.3.8-3.9-4.2-.2-4.3 5.3-7.8 5.7v-2.4l.5-.3-.2-.3-.2.5-2.9 1.8c-1.1-1.3 1.5-3.2-.6-4.3 2.2-3.4-2.3-5.6-1.5-8.8-3.7-3.4-1-6 1-8.7.3-.4.6-1 1-1.7-1.9-.8-3.4-2-2.9-4.4.9-.1 1.9 0 1.9-1.8-1 .2-1.6.8-1.9 1.7-1-.1-1.9-.3-1.5-1.8.6-1.8 1.9-2.9 3.1-4.3 1-1.2 2.4-2.2 1.5-4.3-2.7.6-3.6 4.4-6.7 4.2.6-3.1 2.4-5.4 4.7-7.4 1-.9 1.6-1.8.6-3.3-2.7-.3-3.6 3.7-6.4 3.3l-.1-.1c-.1-3.4 4-4.4 4.5-7.9-5.2.6-6.2 6-9.8 8.6-.7-8.5 2.7-14.8 7.8-20.6-3.4-2.5-4.8 1.8-7.3 1.3.2-2.3 2.3-4.8-1-6 1.2-3.1 4-4.1 4.9-6.7-.8-1.5-2.8-.2-3.5-1.8-.2-2.1 2.1-2.8 2.7-4.5s-1.7-2.3-1.5-4.4c.6-4.9.1-5.1-4.6-3.3-2-3.6 2.2-5.2 2.7-7.7-2-2.8-4.3.1-6.1-.5-.8-2.3 1.1-3.7 1.2-5.8-.3-1.7-2.4-1.7-3.5-3.1-.6-3.2 3.1-6.2.9-9.7-1.5-1.3-2.3 1.3-3.7.7-1.2-2.2 1.4-3.2 1.5-5.1.3-2-2.6.3-2.9-2.4-.4-3.7-.2-8-3.6-10.9-1.1-1-1.5-2.8-.7-4.5.4-.8.3-2 .5-3 .5-2.8-3.7-2.9-3.1-5.4.6-2.4.9-4.4-1.5-5.9-.5-.3-1.1-1-1-1.3 1.5-5.5-2.9-9.4-4-14.1-1.3-5.1-3.6-10-5.5-14.9-1.8-4.8-3.1-9.8-5.2-14.4-4.4-9.7-7.1-20-11.3-29.7l-10-20.9c-1.8-3.2-.7-6.9-2.3-10.1-2.6-5-4.6-10.4-6.9-15.7-2.8-6.4-3.9-13.4-6.1-19.9l-15.1-50.6c-3.8-14-8-28-13-41.5l-16.5-47c-1.4-3.4-2-7.1-2.7-10.7-2.3-12.3-6.8-24-9.2-36.3-2.9-14.5-6.5-28.7-11-42.8-.9-2.9-1.3-6-1.9-9-.3-1.8-1-3.5-3.1-4.7-2.7 3-5.3 5.9-9.8 5.4-1.5-.2-2.3 1.4-2.5 3-2.3 17.3-7.3 34-10.9 51-1.3 6.2-3.4 12.2-5.2 18.3-.6 1.8-1 3.7-.4 5.4 1.6 5.6 1 11.4 1.9 17.1.6 4.4 1.8 8.9 1.4 13.5-1.2 15.2-2.8 30.2-8.6 44.5-2.3 5.5-3.8 11.2-3.3 17.3.9 11.7-1.9 23.4-1 35.1.7 9.5 1.6 18.9.8 28.3-.8 10-1.3 20.1-.9 30.2.5 12.3 1.5 24.5 2.9 36.8 1 8.4 2.6 16.9.9 25.7-1.5 8.1 1.3 16.2 2.8 24.3 2.3 11.6 3.8 23.4 5.2 35.2 1.2 10.4 1.8 20.9 2.3 31.3.1 1.5.1 3 1.2 4 2.8 2.3 3.9 5.7 5.1 8.9 2.2 5.9 6.6 9.7 10.7 13.8 4.3 4.2 7.8 8.7 10.1 14.4.5 1.3 1.3 2.7 1.5 4 .6 5.9 3.6 10 7.7 14.1 5.7 5.7 10.7 12.1 16.4 17.9 10.6 11.1 22.7 20.5 34 30.8 10.2 9.4 20.8 18.3 31.6 27 14.8 12.1 28.6 25.4 42.8 38 8.6 7.6 18.1 14 26.8 21.4 6.5 5.4 11.3 12.4 14.4 20.1 4.4 10.9 12.3 17.9 21.8 23.4 4 2.3 7.7 5.1 10.7 8.7 5 5.8 11.1 10 17.6 13.5 10.8 5.8 18.4 14.6 23.3 26 .9 2 1.1 3.9.9 6-2.5 17.6-6.9 34.5-14.1 50.7-3.8 8.5-8 16.6-12.2 24.7-4.2 8.2-10.1 15.2-16 22.2l-34 38c-12.1 13.7-26.9 23.5-41.6 33.6-3.1 2.2-8.6.9-11.3-2.3-2.4-2.8-4.1-5.9-4.4-9.9-.4-6-1.9-11.6-5.4-16.7-3.7-5.4-4.4-12-5-18.2-.9-8.6-2.8-16.9-4.4-25.4-1.1-6.4-3.4-12.2-7.2-17.4-.8-1.2-1.8-2.3-2.2-3.7-2.2-7.6-7.4-13.6-10.7-20.6-4.5-9.9-12.3-17.4-17.5-26.9-2.6-4.7-6.9-8.5-10.5-12.6-4.1-4.7-9.2-8.5-11.9-14.5-.6-1.3-1.8-2.3-2.9-3-3.9-2.3-7-5.6-9.5-9.2-3.6-5-8.6-7.9-13.2-11.2-8-5.9-15.3-12.5-21.6-20.1l-8-9.1c-6.9-7.4-12.8-15.7-19.4-23.4-7-8.4-12.3-18-18.9-26.7-6.1-8.1-13.4-15.2-20.9-21.9-6.6-5.9-12.7-12.3-18.5-19.2-3.1-3.7-6.2-7.5-9.9-10.6-4-3.3-7.5-7.4-11.5-10.8-5.6-4.9-11.8-9-17.3-13.9l-5.3-4.9c-2.8-2.4-3.9-2.2-6.4.5-3.4 3.6-4.5 7.5-2.6 12.3 1.5 3.6 1.3 7.4 1.1 11.3-.4 8.8-1.2 17.7.6 26.5.2 1.2.2 2.4.2 3.7-.1 9.7 1 19.3 2.3 28.8.1.4.1.8.1 1.3-.5 10.7 1.1 21.4 1.6 32 .4 8.1 0 16.4 1.9 24.5.2.8.3 1.8.1 2.4-2.3 7.4 0 14.7.1 22 0 1.3 0 2.5.2 3.7l7.4 37.9c.9 5.3 1.3 10.6 2.9 15.7.5 1.7.5 3.8.1 5.5-1.9 8-.8 16-1 24-.1 2.4-.7 4.8-1.3 7.1-1.6 7.1-3.6 14.5-3.1 21.7l2.1 33.7c.1 5.9 1 11.8 1.7 17.8.2 1.4.7 2.8.2 4.3l-7.3 19.4c-2.7 7-8.2 10.4-14.4 13-4.6 1.9-9.4 2.8-14.4 3.1-5.9.3-11.8 1.3-17.7 1.9-1.9.3-4 .4-5.9.4-11.1.1-22.3-.4-33.4.2l-54.5 1.2c-5.4 0-10.7-.4-15.8-2.1-5.3-1.8-10.6-1.3-15.7.6-11.1 3.9-22.3 3.1-33.5 1.3-5.8-.9-7.7-3.5-7.7-9.6.2-13.1 4.5-25.3 8.5-37.6 1.5-4.5 5.4-6.5 8.7-9 4-2.8 6.8-6.2 7.8-11.1.6-3.2 2.4-5.8 5-7.4 3.1-1.8 4.8-4.8 6.9-7.5 10-12.5 15.5-27.5 21.5-42 1.8-4.3 3-9 3.2-13.6.3-4.6 1.2-9 2.9-13.1 4.2-10.5 5.8-21.2 5.8-32.5 0-8.6-.2-17.2.7-25.9.6-5.7-1-11.7-.9-17.8.2-8.2-.6-16.6.2-24.7 1.9-18.9.4-37.8 1-56.8.1-2.9-.1-5.8-1-8.5-2.2-5.9-.9-12.2-2.3-18.3-2.8-11.7-3.1-23.9-5.2-35.8-1.4-8.2-2.7-16.6-6.1-24.4-2.6-5.9-2.8-12.7-5.4-18.8-2.7-6.4-6.5-12.1-10.2-18-1.9-3.1-4.2-6-5.6-9.4-5-11.6-12.3-21.5-19.9-31.3-1.7-2.2-3.6-4.4-4-7.5-.1-.8-.5-1.7-1-2.2-6.8-5.5-9.2-14.2-14-21.1-3.1-4.5-5.6-9.4-8.1-14.3-2.7-5.1-7.5-7.7-11.9-10.9-.7-.5-1.9-.6-2.8-.6-8.1 0-16.2-.3-24.3 1.4-7.2 1.5-14.4 1.9-21.7 3.2-6.2 1.1-12.3 2.9-18.6 3.3-11.5.8-23 1.7-34.4-.7-5.9-1.2-10.8-4.9-16.5-6.8-13.8-4.4-27.7-7.9-42.1-9.6-16.6-1.9-33.2-1.4-49.8-2.5-10.1-.7-20.3-.1-30.3-1.2l-17.7-1.8c-7.2-1.2-14.5-1.3-21.8-1.5-7.1-.3-14.1-1.3-21.2-2.3-2.2-.3-4.4-.3-6.5-.3-6.6.2-12.9-1.3-19.4-2.4-22.1-3.8-43.4-11.1-65-16.7-17.1-4.4-33.5-11.2-49.8-18.1l-14-5.4c-5.4-1.8-7.2-.4-7.4 5.6-.1 1.8 0 3.7 0 5.5l.2 43.3c.2 11.1 1.5 22 5.2 32.6 1.3 3.7 1.6 7.8 1.6 11.5 0 7.9 2.5 15.1 4.4 22.3 1.8 6.5 2.7 13.2 4.1 19.8l13.9 61c2.4 8.8 4 17.9 5.3 27l5.2 29c1.7 11.4 5.6 22.3 7.2 33.6 1 7.2 4.2 13.7 4.8 20.9.9 11.6 4.4 22.4 6.8 33.7 1.5 6.8 4.4 13.2 6.2 19.9 2.3 8.3 4.3 16.5 4.6 25.3.4 10 1.5 20 3.9 29.7.3 1.2.6 2.4.6 3.6-.2 15.7 5 29.8 10.9 43.7 2.4 5.7 4.1 11.6 6.1 17.4 1.5 4.5 3.7 8.4 7.4 11.6 3.8 3.2 6.5 7.8 8.7 12.4 3.6 7.1 6.4 14.6 9 22.1 3.4 9.5 2.3 18.5-1.3 27.5-1.5 3.7-3.7 5.8-7.3 6.4-14.6 2.7-29 6.1-44.1 5.4-11.9-.5-23.8-1.2-35.5 2.2-.4.1-.8.1-1.2.1l-73.8.9-25.4-1.4c-4.5-.5-9.4.1-14-.7-1-.2-2 0-3-.3-8.8-1.8-11.1-5.7-7.7-14.3 5.5-14 13.1-26.7 23.7-37.3 2.7-2.6 5.8-4.4 9-6 6.5-3.3 12.2-7.7 18.6-11 2.4-1.3 3.6-3.3 4.4-5.6 1.9-5.7 5.2-10.6 8-15.8 1.5-3 2.7-5.9 2.7-9.3 0-.6-.2-1.3.1-1.8 2.6-5.2 1.9-10.6 1.2-16.2-.4-3.5-.2-6.9-1.9-10.1-.5-.8-.6-2-.6-3 .3-3.3-.9-5.9-3.2-8.2-1.8-1.7-2.2-4.2-2.8-6.6-1.4-4.7-2.3-9.8-8.1-11.7-2.6-.8-5.3-2.8-4.1-7 .8-2.9-1.4-4.4-3.9-5.2-4.7-1.3-7.7-4-7.7-9.4 0-.8 0-1.9-.4-2.3-3.9-3.7-4-9.9-8.4-13.2-1.2-.9-1.8-2.7-2.7-4-3.6-6-5-13.2-9.4-19.1-2.7-3.7-2.5-9.5-5.3-13.6-2.2-3-3.8-6.2-5.1-9.6l-9.1-26-8.2-28.9c-2.2-8.7-4.4-17.4-5-26.5-.1-1.7-.4-3.3-1.1-4.8-3.6-6.5-4.8-13.9-6.6-21-2.8-10.6-7.7-20.3-11.2-30.6-7.4-21-17.6-40.9-24.9-62-7.2-21-18.3-40.2-24.9-61.4-6.1-19.3-13.7-38.2-18.4-57.9-2.6-10.9-4-22.1-5.7-33.2-.6-3.4-1.2-6.8-3.6-9.8-3.2 1.3-4.6 4.2-5.6 7-4.2 11.6-9.2 22.7-12.5 34.6-4.3 15.8-11.6 30.1-22.4 42.3-5.9 6.6-11.2 13.6-14.4 22.4-3.9 10.8-8.8 21.2-13.9 31.4-5.3 10.7-8.2 22.3-12.3 33.4-3.9 10.6-7.3 21.3-10.3 32.2l-6.6 24.9c-1.4 6.6-4.9 12.6-6.1 19.3-2.2 12.1-7.7 23.3-9.8 35.4l-5.2 27.7c-1.3 7-2.7 14-4.9 20.9-2.5 7.8-4.3 15.8-7.7 23.3-.2.3-.3.8-.3 1.2.2 11.8-5.2 22.3-7.7 33.4-2.4 11-6.8 21.5-8.5 32.7l-3.1 24.4-1.5 13.4c-.8 6-3.2 11.4-6.8 16.7-5.4 8.2-10.8 16.8-12.1 27.2-.1.8-.2 1.8-.6 2.3-4.7 4.4-2.4 10-2.9 15.2-.5 5.4 1.4 10 4.4 14.4 1.3 1.8 2.6 3.6 3.1 5.9.2 1.2.9 2.3 1.6 3.3 9 12.1 10.8 17.2 13.8 34.2 1.7 9.5.8 18.3-2.7 27.1-1.9 4.8-5.1 7.8-9.8 9-6.3 1.8-12.7 2.7-19.1 4-6.7 1.3-13.4 1.2-20.2 1.2-25.3 0-50.5.6-75.7-.3l-54.7-1.2c-7-.3-14.3-.7-21.1-2.6-2.2-.6-4.3-.8-6.5-.9-6.1-.6-9.5-5.4-8.4-11.6.9-5.1 2.6-9.8 5.4-14.2 3.5-5.4 6.5-11.3 9.6-17 3.1-5.6 7-10.5 12.4-13.8 15.8-9.8 29.3-22.4 42.1-35.9 9.5-10 16.6-21.4 21.1-34.5.6-1.6 1-3.2.8-4.9-.4-4 .2-7.9 1.5-11.6 1-3 .6-5.2-1.7-7.1-2.2-1.8-2.5-3.9-1-6.5 2.6-4.6 2.9-9.2.2-14-1.1-1.9-1.3-4.2.1-6.4 1.5-2.6 1.8-5.6.1-8.2-1.9-3-1.5-5.8-.4-8.8.9-2.5 2-4.9-.4-7.4-1-1.1-1-2.8-.6-4.1 1.5-3.7.6-7.8 1.9-11.6.6-1.7.6-3.8.2-5.5-2.2-11.2-1-22.6-.7-33.9.2-6.3 1.4-12.6 2.8-18.8 2.6-11 3.9-22.2 5.3-33.3.8-5.9 2.6-11.6 4-17.3 2-7.8 2.7-15.7 4.2-23.5 2.6-14.1 4-28.4 6.2-42.5 1.8-11 2.9-21.9 3.7-33l2.3-30.1 2.4-34.3c1.4-15.2 2.5-30.3 2.1-45.6-.3-11.1 1-22.2 1.5-33.2l1-21.5c.8-8 2.3-15.8 4.7-23.4l11.8-38.1 10.7-42.1 6-26.3c1.5-7 1.9-14.2 2.6-21.4.9-9.5 1-18.8 1-28.3 0-6.4-1-12.6-2.2-18.8-2.3-12.3-3.7-24.7-1.6-37.3.7-4.2.2-8.6.2-13-.1-3.5-3.1-5-4.7-7.9-6.1 2.8-10.9 6.1-14.4 12.1-3.8 6.4-9.1 11.9-15.8 15.5l-7.5 3.9c-1.2.7-2.7 1.1-3.4 2.4-4 8-11.9 11.7-17.9 17.6-5.3 5.3-11.8 9-16.9 14.4-3.2 3.3-7.5 4.9-11.7 6.9l-20.5 9.6c-2.3 1.2-4.8 1.8-7.3 2-3.6.3-7 1.3-10.4 2.3-10.2 3.2-20.7 5.6-30.1 11.1l-5.1 3.2c-3.3 2.1-6.7 3.1-10.7 3.2-7.8.3-15.8.5-23.2 3.9-2.3 1.1-4.6 2.1-6.5 4-4.7 4.7-9.4 9.5-13.3 14.8-3.1 4.2-7 7.2-12.2 8.1-1.4.3-2.7.8-4 1.2-3.1.8-5.2 2.4-5.9 5.9-.7 4.2-3.2 7.6-6.1 10.5-6.9 7.1-13 14.9-18.8 23-2.6 3.5-5.3 7.2-9.7 8.9-4.6 1.8-7.2 1.2-9.4-3.3-2-4-3.6-8.3-3.9-12.9-.6-10 .3-19.8 3-29.3 2.7-9.4 3.2-18.9 5.2-28.4 1.4-6.6 2.2-13.4 3-20l3.1-22.4c.7-7.1 2.3-14.2 4-21.1 2.4-9.5 2.7-19.1.5-28.6-1.2-5.2-2.7-10.3-4.8-15.2-1.5-3.9-3.3-8.7-7.9-9.1-4.3-.4-7.6 3-10.2 6.4-7 9.3-12.7 19.5-16.1 30.7-3.4 11.1-9.4 20.3-15.7 29.6-2.2 3.3-4.1 6.6-5.6 10.1-2.9 6.7-6.8 12.6-12.2 17.2-4.5 3.9-6.5 8.6-6.1 14.7a26.69 26.69 0 0 1-1.2 9.7c-2.7 8.8-4.2 17.9-5.6 27-.7 5.3-.4 10.7-.4 16.1-.1 12.1-1.9 24.2-1.2 36.3.3 6.1 1.1 12.1 0 18.3-.2 1.4-.3 3 .2 4.3 2.1 6.6.7 13.1-.4 19.5-1.6 9.2-1.5 18.4-.1 27.5 1 5.9-.2 11.6-1.3 17.1-.7 3.9-1.3 8-.6 11.6 1.5 7.8 1 15.6 1 23.4-.1 9 1 18.1-1 27-.2 1-.2 2.2 0 3.1 2.3 7.2.5 14.2-.8 21.3-.3 1.7-.4 3.2.1 4.9 1 3.4 1 7 .3 10.4-.7 3.5-1 6.9.2 10.3 1.6 4.9.6 9.7-.1 14.6-1.5 10-2.3 20 1 29.8 1 2.8 0 5.3-1.3 7.7-1.6 2.8-1.9 5.4-.6 8.6 1.9 4.7 3.3 9.7 1.2 15-.3.9-.4 2.1-.2 3 .8 4.7.7 9.3-1 13.8-.8 1.9.2 4 1.1 5.9 1.9 4 2.7 8 1.4 12.5-.9 3-1.1 6.3-.5 9.6s-.5 7-.4 10.4l.1 25.5c.1 1.3.6 2.5.5 3.6-1.1 6.2-2.5 12.3.9 18.3-3.4 6.3-.6 12.9-.8 19.3-.1 2.2-1 4-2 5.8-1.4 2.3-1.6 4.8-.3 6.9 3.9 6.4 2.7 12.1-2.4 17.3 2.4 5 2.7 9.9-.7 14.5-1 1.4-.2 3.1.2 4.8.8 3.3 1 6.4-1 9.5-1.6 2.3-1.3 5.3-.6 7.8 1.9 6 .9 11.4-2.7 16.3-1.5 2.1-1.5 4.2-.3 6.3 1.9 3.5 2.2 7 .2 10.6-1.4 2.4-.4 4.4 1 6.2 1.6 2.2 1.9 4.1-.2 5.9-1.5 1.4-.7 3.4-1.1 4.9-2.9 9.7 1.8 19.8-2.6 29.6-2.3 5-1.1 11.5-.2 17.1 1.4 8.5 3.5 16.8 6 25 1 3.6 3.7 6.8 6.7 9.3 5.8 4.9 7.5 11.4 7.3 18.7-.1 6.5.7 13.1-1.8 19.5-3.7 9.4-11.4 17.6-23 17.1-4.8-.3-9.6-.4-14.3.1-8.1.8-13.6-3.2-18-9.6-1.7-2.5-3.3-5.2-4.6-8-3.9-8.3-10.2-15.2-12.5-24.4-.7-2.7-2.5-5.1-3.7-7.6-4.5-9.6-7.2-19.8-9.6-30.2-2.3-9.5-4-19.2-5.8-28.8-2.3-12.2-3.4-24.8-1.3-37.3.4-2.6.4-5.4.2-8-1.5-14.2-1.3-28.2-.1-42.5l1.8-19.6c1.5-11.7.6-23.4 1.5-35.1.6-7.5 2.3-15.4-.4-23.1-.4-1.1-.2-2.5.2-3.6 1.3-3.9 1-7.7-.5-11.5-.6-1.7-.9-3.3-.6-5.4 1.1-8.8 1.3-17.7-.6-26.4-.5-2.4-.7-4.6-.3-7.2.6-4 .7-8.3-.1-12.3-.9-4.7-1.2-9.4-1.7-14l-1.5-14.7c-1.4-10.4-2-20.8-2.6-31.2-.5-9.4-1.6-18.8-3.6-28-1.4-6.2-1.9-12.6-2-18.9 0-3.9-1.1-7.7-1.4-11.6-.7-9.6-.7-19.5-2.7-28.7-2.8-12.4-1.3-25.4-5.3-37.4-.1-.2-.2-.4-.1-.6 3-7.6-.6-14.9-1.5-22.3-.7-6.6-.6-13.1-1-19.7-.2-3.9-2.2-7.3-2.7-11.2-1-7.6-.7-15.2-.8-22.8-.1-3.1 0-5.9-1.7-8.9-1.6-2.8-1.3-6.6-.6-9.7 1.2-5.2-.3-10.1-.7-15.2-.2-2.8-.7-5.7-.6-8.5.1-3.9 0-7.9-1.6-11.5-1-2.2-.8-4.4-.7-6.7.2-7-.6-13.9-2.1-20.8-.4-1.8-.2-3.7-.3-5.5l-.9-23.4c-.6-6.8-1.5-13.9-1.1-20.5.8-12-.2-23.9 1-35.8.6-6.2.7-12.3 1-18.4.2-6.6 2.9-12.7 3.8-19.3 2-14.2 6.8-27.8 9.8-41.8 1.3-5.9 1.1-12.4 4.3-17.8 3.8-6.6 6.1-13.7 8.5-20.9l9.7-29.7 11.3-37.6c3.5-13.1 6.4-26.2 8.8-39.5 1-5.6 1.9-11.3 3.6-16.8 4.4-14.2 7.7-29 15.6-41.8 4.4-7.2 8.2-14.5 10.2-22.8 1.5-6.1 5.2-11.1 8.5-16.2 4-6.3 9.3-11.9 10.2-19.9.1-.6.4-1.2.7-1.7 7.2-11.6 7.8-25.1 11.1-37.8 2.1-8.4 2.5-17 5.3-25.2 1.4-3.9 1.2-8.5 2.6-12.6 1.6-4.9 3.5-9.6 6.1-14.1.6-1.1 1.5-2 1.4-3.3-.4-4 1.4-7.4 3.3-10.4 5.2-8.3 7.1-18.3 13.2-26.1 4.8-6.2 7.7-13.4 11-20.4 4.5-9.9 9.8-19.3 14.8-28.8 2.5-4.9 7.3-8 11-12.1 3.4-3.9 7.3-6.8 11.9-9 13.8-6.4 27.8-11.4 43.3-9-.1 1.5-1.8.4-2.2 1.4 0 1.5 8.1.8 11.9-.9.2-1-1.5-.7-1.2-1.9 6.4-.7 12.7-2 19.2-1.8l20.7.6c7.6.3 15 1.7 22.7 1.3 3.6-.2 7.4.8 11.1 1.6 2.6.7 5.2 1 7.7.5 14.5-2.8 29.2-1.7 43.8-2.6 9.8-.6 19.8-.6 29.5-3.1 1.3-.3 2.7-.3 4.1-.3 10.7.4 21.4-1.2 32 .9.7.2 1.5-.2 2.3-.4 11.1-3.9 22.9-4.4 34.2-7 9.8-2.2 19.7-4.3 29.2-7.9 5.7-2.1 11.7-3.4 17.8-4.4s11.9-2.9 17.8-4.9c8.8-3 18.2-4.4 26.6-8.6 11.6-5.8 23.7-10.3 35.6-15.4 14.9-6.4 29.4-14.4 45.6-17.1l21.1-3.3c12.1-2.4 24.4-2.2 36.6-3.4l24.8-2.7 19.9-2.8 19.4-2.2c2.3-.3 4.7-.2 7-.8 9.8-2.6 19.9-2.8 29.9-4.3l22.2-3.9c12.3-1.9 24.4-4.8 37-4.7 2.8 0 5.4-1.1 8.2-1.3l36.6-3.8 38.3-3.8c8.2-1.2 16.5-1.4 24.6-3.3 1.7-.4 3.6-.5 5.3-.1 6.3 1.7 12.7.9 19 1.1 2.7.1 5.6-.3 8.2.8.9.3 2 .5 2.9.3 6.9-2 13.8-.8 20.7-1 13.6-.4 27.3-2.3 41-1.3 11.5.8 22.8 2.5 33.7 6.4.7.3 1.5.5 2.2 1 6.2 5 14.1 4.8 21.1 7.5 11.6 4.8 24.3 5.2 35.9 10 4.6 1.9 9.8 1.3 14.6 1.6 7.7.3 15.3.8 22.7 2.9 5.2 1.5 10.4 2.3 15.7 2.6 6.1.3 12.3-.1 18 1.4s11.7.6 17.2 2.5c13.2 4.6 27.4 4.2 40.7 8.3 6.8 2.1 13.8 3.8 20.7 5.3 13.4 2.8 26.4 7 39.2 12l9.8 4.2c6.2 2.3 12.7 2.4 19 4.4 13.2 4.4 26.4 8.8 38.9 15.2 8.6 4.4 17.8 7 26.9 9.8.2.1.4 0 .6.1 14.8 5.7 30.7 7.7 45.7 13.3 18.8 7 37.4 14.7 55 25 8.2 4.9 15.8 10.9 23.8 16.2 8.3 5.6 15.7 12.4 24.4 17.5 5.9 3.5 11.2 8.5 16.1 13.5l30 31c7.3 7.6 13.6 16.1 20 24.4 7.8 10 16 19.8 22.8 30.8l33.7 55.9c4.7 8.5 9 17.4 12.5 26.5 2 5.1 5.2 9.7 7.2 14.9l11.2 25.8c6.4 12.8 11.1 26.4 17.1 39.3 3.9 8.4 6.8 17 8.8 26.1l7.3 29.6c1.9 7.8 2.4 15.8 2.7 23.8.4 9.3 2.7 18.3 3.1 27.5.3 9.5 2.7 18.6 3.2 28.1.3 5.9 1.1 11.8 2.2 17.7l5 30.9c4 18 9.7 35.4 14.5 53.2 4.7 17 10.9 33.5 14.1 50.8 1.4 7.3 2 15.1 5 21.4 5.9 12.4 4.6 26.1 8.8 38.7l8.9 25.5c3 7.4 5.9 14.8 8.1 22.5 3.2 11.2 7.8 21.9 11.6 33l17.6 50.3 18.3 56c5 14 9.6 28.2 12.2 43 1.7 9.9 3.6 19.8 6.6 29.3 3.1 10.1 8.4 19.4 15.4 27.5 2.5 2.8 4.8 6 7 9-.7 1.4-2.4.5-3.2 1.8l6 2.3c.3 2.3 1 4.7 2.2 7-1 1.8-4 1.3-4 3.9-.1 1.9 1.7 3.3 1.3 5.6-3.6-.5-6.1 1.7-8.4 4.4-2.1 2.5-4.7 4.6-8.1 4.4-4-.3-7.6.1-8.8 4.7-3.2-.4-1.4-4.9-4.6-4.6l-.1-.1c-.2-1.1 1-2.1 0-3.3-2.3.8-2.4 2.6-2.3 4.6-3.4-.6-3.2 4.5-6.9 4.4 1-5 4.4-8.8 5.6-14.2-2.9 1.2-3.6 3.3-4.8 4.9-1 1.6-1.3 3.8-3.1 5-1-2.1.4-3.7.6-5.4.2-1.6 1.5-3 .7-4.7-1.1-2.6-.3-4.7 1.5-6.6 2-2 1.8-3.9-.2-5.3-2.5-.3-3 2.4-5 2.4-.9.1-1.1-.4-1.3-1 .6-.3.6-.4.2-.5.1 0-.1.3-.2.5zm-21-78.5c1.9.3 2.7-.3 2.7-1.8 0-.3-.4-.8-.6-.8-1.4-.2-2.1.6-2.1 2.6zm35.4 98.3c-.1 1.1.2 2.6-1 3-1.4.4-1.2-1.001-1.4-1.8.8-.4 1.5-.8 2.3-1.3 0 .1.1.1.1.1zm-22.7-32.1c-.2.6-.3 1.1-.5 1.7-1-1.001 0-1.3.5-1.7 0-.1 0 0 0 0zm-9.5-34.7c-.2.6-1 1.2-1.2.9-.6-1.499.7-.599 1.2-.9zm-1.2-7.4c-.2.6-.3 1.1-.5 1.7-1-1.001-.1-1.3.5-1.7zm-4.8-18.6c-.2.6-1.1 1.201-1.2.901-.6-1.4.8-.7 1.2-.901zm-2.4-11.2c.2-.599 1.1-1.3 1.2-.9.7 1.5-.7.7-1.2.9zm.8-7.7c.1.2.2.3.2.4-.2.5-.4.5-.6.2-.1-.1 0-.3.1-.5 0-.1.2-.1.3-.1z"/><path class="J" d="M1398.3 1934.9c-.1.2-.2.5-.2.5-.5-.1-.5-.3.2-.5zm-14.4-66.9c-.1.2-.2.5-.2.5-.4 0-.3-.2.2-.5z"/></svg>