<?xml version="1.0" encoding="utf-8"?>
<!-- Generator: Adobe Illustrator 19.0.0, SVG Export Plug-In . SVG Version: 6.00 Build 0)  -->
<svg version="1.1" id="Calque_1" xmlns="http://www.w3.org/2000/svg" xmlns:xlink="http://www.w3.org/1999/xlink" x="0px" y="0px"
	 viewBox="-267 638.5 2463.8 1725.5" style="enable-background:new -267 638.5 2463.8 1725.5;" xml:space="preserve">
<style type="text/css">
	.st0{fill:#EEF1C1;}
</style>
<g>
	<g>
		<path class="st0" d="M2095.6,1931.9c-3-0.1-4,2.3-5.2,4.4c-1.3,2.2-1.9,4.9-4.8,7.2c-0.2-7.1,5.9-11.3,5.5-17.5
			c0.7-0.2,0.8-0.5,0.3-0.6c-0.1,0-0.2,0.4-0.3,0.6c-3.6,1.3-3.4,5.8-6.1,7.9c-2.8-5.7-2.2-8.7,2.9-13.6c1.9-1.9,4-3.6,5.9-5.4
			c1.3-1.2,1.9-2.7,1-4.6c-5.2-0.2-5.3,6.3-9.7,6.8l0,0c0-1,0-2,0-2.9l0.6-0.3l-0.3-0.3l-0.3,0.6c-1.2,0.7-2.4,1.4-3.6,2.1
			c-1.4-1.6,1.9-3.8-0.8-5.1l0,0c2.7-4.1-2.9-6.7-1.9-10.5c-4.6-4.1-1.3-7.2,1.3-10.4c0.4-0.5,0.8-1.2,1.3-2c-2.4-1-4.2-2.4-3.6-5.2
			c1.1-0.1,2.4,0,2.3-2.1c-1.3,0.2-2,1-2.4,2c-1.3-0.1-2.4-0.4-1.8-2.1c0.8-2.1,2.4-3.5,3.9-5.1c1.2-1.4,3-2.6,1.8-5.1
			c-3.4,0.7-4.5,5.2-8.3,5l0,0c0.7-3.7,3-6.5,5.8-8.8c1.2-1.1,2-2.1,0.7-3.9c-3.3-0.3-4.5,4.4-7.9,3.9l-0.1-0.1
			c-0.1-4.1,5-5.2,5.6-9.4c-6.4,0.7-7.7,7.2-12.1,10.3c-0.9-10.1,3.3-17.7,9.7-24.6c-4.2-3-6,2.1-9.1,1.6l0,0
			c0.3-2.7,2.8-5.7-1.2-7.2c1.5-3.7,5-4.9,6.1-8c-1-1.8-3.5-0.2-4.3-2.2c-0.2-2.5,2.6-3.3,3.3-5.4c0.7-2.1-2.1-2.7-1.8-5.2
			c0.7-5.9,0.1-6.1-5.7-4c-2.5-4.3,2.7-6.2,3.3-9.2c-2.5-3.3-5.3,0.1-7.6-0.6c-1-2.8,1.4-4.4,1.5-6.9c-0.4-2-3-2-4.3-3.7
			c-0.7-3.8,3.8-7.4,1.1-11.6c-1.9-1.5-2.9,1.6-4.6,0.8c-1.5-2.6,1.7-3.8,1.9-6.1c0.4-2.4-3.2,0.4-3.6-2.9c-0.5-4.4-0.3-9.5-4.4-13
			c-1.4-1.2-1.9-3.3-0.9-5.4c0.5-1,0.4-2.4,0.6-3.6c0.6-3.3-4.6-3.5-3.8-6.5c0.7-2.9,1.1-5.3-1.9-7c-0.6-0.4-1.4-1.2-1.3-1.6
			c1.8-6.6-3.6-11.2-5-16.8c-1.6-6.1-4.5-11.9-6.8-17.8c-2.2-5.7-3.9-11.7-6.4-17.2c-5.4-11.6-8.8-23.9-14-35.5
			c-3.8-8.5-7.8-16.9-12.4-25c-2.2-3.8-0.9-8.2-2.9-12.1c-3.2-6-5.7-12.4-8.6-18.7c-3.5-7.6-4.8-16-7.5-23.8
			c-6.9-19.9-13-40.1-18.7-60.4c-4.7-16.7-9.9-33.4-16.1-49.6c-7.1-18.6-12.9-37.6-20.4-56.1c-1.7-4.1-2.5-8.5-3.3-12.8
			c-2.8-14.7-8.4-28.7-11.4-43.3c-3.6-17.3-8.1-34.3-13.6-51.1c-1.1-3.5-1.6-7.2-2.3-10.8c-0.4-2.2-1.2-4.2-3.8-5.6
			c-3.3,3.6-6.6,7.1-12.2,6.4c-1.8-0.2-2.8,1.7-3.1,3.6c-2.8,20.7-9,40.6-13.5,60.9c-1.6,7.4-4.2,14.6-6.5,21.9
			c-0.7,2.2-1.2,4.4-0.5,6.5c2,6.7,1.3,13.6,2.3,20.4c0.8,5.3,2.2,10.6,1.7,16.1c-1.5,18.1-3.5,36.1-10.7,53.1
			c-2.8,6.6-4.7,13.4-4.1,20.7c1.1,14-2.3,28-1.2,41.9c0.9,11.3,2,22.6,1,33.8c-1,12-1.6,24-1.1,36.1c0.6,14.7,1.8,29.3,3.6,43.9
			c1.3,10,3.2,20.2,1.1,30.7c-1.9,9.7,1.6,19.4,3.5,29c2.8,13.9,4.7,28,6.5,42c1.5,12.4,2.2,24.9,2.9,37.4c0.1,1.8,0.1,3.6,1.5,4.8
			c3.5,2.8,4.8,6.8,6.3,10.6c2.7,7,8.2,11.6,13.3,16.5c5.3,5,9.7,10.4,12.5,17.2c0.6,1.6,1.6,3.2,1.8,4.8c0.7,7,4.5,12,9.5,16.8
			c7.1,6.8,13.3,14.4,20.3,21.4c13.1,13.3,28.1,24.5,42.1,36.8c12.7,11.2,25.8,21.9,39.1,32.3c18.4,14.4,35.4,30.3,53.1,45.4
			c10.7,9.1,22.4,16.7,33.2,25.5c8,6.5,14,14.8,17.9,24c5.5,13,15.2,21.4,27,28c4.9,2.8,9.5,6.1,13.3,10.4
			c6.2,6.9,13.7,11.9,21.8,16.1c13.4,6.9,22.8,17.4,28.9,31.1c1.1,2.4,1.4,4.7,1.1,7.2c-3.1,21-8.5,41.2-17.5,60.5
			c-4.7,10.1-9.9,19.8-15.1,29.5c-5.2,9.8-12.5,18.1-19.8,26.5c-13.6,15.5-28.2,30.1-42.1,45.4c-15,16.4-33.3,28.1-51.5,40.1
			c-3.9,2.6-10.6,1.1-14-2.7c-3-3.3-5.1-7.1-5.4-11.8c-0.5-7.2-2.3-13.9-6.7-19.9c-4.6-6.4-5.4-14.3-6.2-21.7
			c-1.1-10.3-3.5-20.2-5.4-30.3c-1.4-7.6-4.2-14.6-8.9-20.8c-1-1.4-2.2-2.8-2.7-4.4c-2.7-9.1-9.2-16.2-13.2-24.6
			c-5.6-11.8-15.3-20.8-21.7-32.1c-3.2-5.6-8.5-10.1-13-15c-5.1-5.6-11.4-10.1-14.7-17.3c-0.7-1.5-2.2-2.8-3.6-3.6
			c-4.8-2.8-8.7-6.7-11.8-11c-4.4-6-10.6-9.4-16.3-13.4c-9.9-7-18.9-14.9-26.8-24c-3.2-3.7-6.5-7.4-9.9-10.9
			c-8.6-8.8-15.9-18.7-24-27.9c-8.7-10-15.3-21.5-23.4-31.9c-7.6-9.7-16.6-18.2-25.9-26.2c-8.2-7.1-15.8-14.7-22.9-22.9
			c-3.9-4.4-7.7-9-12.3-12.7c-5-4-9.3-8.8-14.2-12.9c-7-5.8-14.6-10.7-21.5-16.6c-2.2-1.9-4.4-3.9-6.6-5.8c-3.5-2.9-4.8-2.6-7.9,0.6
			c-4.2,4.3-5.6,8.9-3.2,14.7c1.8,4.3,1.6,8.8,1.4,13.5c-0.5,10.5-1.5,21.1,0.8,31.6c0.3,1.4,0.2,2.9,0.2,4.4
			c-0.1,11.6,1.2,23,2.8,34.4c0.1,0.5,0.1,1,0.1,1.5c-0.6,12.8,1.4,25.5,2,38.2c0.5,9.7,0,19.6,2.3,29.3c0.2,0.9,0.4,2.1,0.1,2.9
			c-2.9,8.8,0,17.5,0.1,26.3c0,1.5,0,3,0.3,4.4c3.6,15,6.5,30.1,9.2,45.3c1.1,6.3,1.6,12.6,3.6,18.7c0.6,2,0.6,4.5,0.1,6.6
			c-2.4,9.5-1,19.1-1.3,28.7c-0.1,2.9-0.9,5.7-1.6,8.5c-2,8.5-4.4,17.3-3.8,25.9c0.8,13.4,2.4,26.8,2.6,40.3
			c0.1,7.1,1.2,14.1,2.1,21.2c0.2,1.7,0.9,3.4,0.2,5.1c-3,7.7-6.1,15.5-9.1,23.2c-3.3,8.3-10.2,12.4-17.8,15.5
			c-5.7,2.3-11.7,3.4-17.9,3.7c-7.3,0.3-14.6,1.5-21.9,2.3c-2.4,0.3-4.9,0.5-7.3,0.5c-13.8,0.1-27.6-0.5-41.4,0.2
			c-22.5,1.1-45,1.3-67.6,1.4c-6.7,0-13.2-0.5-19.6-2.5c-6.6-2.1-13.1-1.5-19.4,0.7c-13.7,4.7-27.6,3.7-41.5,1.6
			c-7.2-1.1-9.6-4.2-9.5-11.5c0.3-15.7,5.6-30.2,10.5-44.9c1.8-5.4,6.7-7.8,10.8-10.7c4.9-3.4,8.4-7.4,9.7-13.2
			c0.8-3.8,3-6.9,6.2-8.8c3.8-2.2,5.9-5.7,8.6-8.9c12.4-14.9,19.2-32.8,26.7-50.2c2.2-5.1,3.7-10.8,4-16.3
			c0.4-5.5,1.5-10.7,3.6-15.7c5.2-12.5,7.2-25.3,7.2-38.8c0-10.3-0.3-20.6,0.9-30.9c0.8-6.8-1.3-14-1.1-21.2
			c0.3-9.8-0.8-19.8,0.3-29.5c2.4-22.6,0.5-45.2,1.2-67.8c0.1-3.5-0.1-6.9-1.3-10.2c-2.7-7-1.1-14.6-2.9-21.8
			c-3.5-14-3.8-28.6-6.4-42.7c-1.7-9.8-3.4-19.8-7.5-29.1c-3.2-7.1-3.5-15.2-6.7-22.5c-3.4-7.7-8.1-14.5-12.6-21.5
			c-2.4-3.7-5.2-7.2-7-11.2c-6.2-13.8-15.2-25.7-24.7-37.4c-2.1-2.6-4.5-5.2-4.9-8.9c-0.1-0.9-0.6-2-1.2-2.6
			c-8.4-6.6-11.4-16.9-17.3-25.2c-3.9-5.4-7-11.2-10.1-17.1c-3.3-6.1-9.3-9.2-14.7-13c-0.9-0.6-2.4-0.7-3.5-0.7
			c-10.1,0-20.1-0.3-30.1,1.7c-8.9,1.8-17.9,2.3-26.9,3.8c-7.7,1.3-15.3,3.5-23.1,4c-14.2,0.9-28.5,2-42.6-0.8
			c-7.3-1.4-13.4-5.9-20.5-8.1c-17.1-5.3-34.3-9.4-52.2-11.5c-20.6-2.3-41.2-1.7-61.7-3c-12.5-0.8-25.1-0.1-37.5-1.4
			c-7.3-0.7-14.6-1.1-21.9-2.2c-8.9-1.4-18-1.6-27-1.8c-8.8-0.3-17.5-1.5-26.3-2.7c-2.7-0.4-5.4-0.4-8.1-0.3c-8.2,0.2-16-1.6-24-2.9
			c-27.4-4.5-53.8-13.2-80.6-19.9c-21.2-5.3-41.5-13.4-61.7-21.6c-5.7-2.3-11.4-4.5-17.3-6.4c-6.7-2.2-8.9-0.5-9.2,6.7
			c-0.1,2.2,0,4.4,0,6.6c0,17.2-0.2,34.5,0.2,51.7c0.3,13.2,1.9,26.3,6.4,38.9c1.6,4.4,2,9.3,2,13.7c0,9.4,3.1,18,5.5,26.6
			c2.2,7.8,3.3,15.8,5.1,23.6c5.8,24.3,10.3,48.9,17.2,72.9c3,10.5,4.9,21.4,6.6,32.3c1.8,11.6,4.6,23,6.4,34.6
			c2.1,13.6,7,26.6,8.9,40.1c1.2,8.6,5.2,16.4,5.9,24.9c1.1,13.8,5.5,26.8,8.4,40.2c1.8,8.1,5.4,15.8,7.7,23.8
			c2.9,9.9,5.3,19.7,5.7,30.2c0.5,11.9,1.8,23.9,4.8,35.5c0.4,1.4,0.8,2.9,0.8,4.3c-0.3,18.7,6.2,35.6,13.5,52.2
			c3,6.8,5.1,13.8,7.5,20.8c1.9,5.4,4.6,10,9.2,13.8c4.7,3.8,8,9.3,10.8,14.8c4.4,8.5,7.9,17.4,11.2,26.4
			c4.2,11.4,2.8,22.1-1.6,32.9c-1.8,4.4-4.6,6.9-9,7.6c-18.1,3.2-36,7.3-54.6,6.4c-14.7-0.6-29.5-1.4-44,2.6c-0.5,0.1-1,0.1-1.5,0.1
			c-30.5,0.9-61,2.8-91.4,1.1c-10.5-0.6-21-0.6-31.5-1.7c-5.6-0.6-11.6,0.1-17.4-0.8c-1.2-0.2-2.5,0-3.7-0.3
			c-10.9-2.2-13.8-6.8-9.6-17.1c6.8-16.7,16.2-31.9,29.4-44.5c3.3-3.1,7.2-5.3,11.1-7.2c8-3.9,15.1-9.2,23-13.1c3-1.5,4.4-4,5.4-6.7
			c2.3-6.8,6.5-12.6,9.9-18.9c1.9-3.6,3.4-7,3.4-11.1c0-0.7-0.2-1.6,0.1-2.2c3.2-6.2,2.3-12.7,1.5-19.3c-0.5-4.2-0.2-8.3-2.4-12.1
			c-0.6-1-0.8-2.4-0.7-3.6c0.4-4-1.1-7.1-4-9.8c-2.2-2-2.7-5-3.5-7.9c-1.7-5.6-2.8-11.7-10-14c-3.2-1-6.6-3.3-5.1-8.4
			c1-3.5-1.7-5.3-4.8-6.2c-5.8-1.6-9.5-4.8-9.6-11.2c0-1,0-2.3-0.5-2.8c-4.8-4.4-4.9-11.8-10.4-15.8c-1.5-1.1-2.2-3.2-3.3-4.8
			c-4.5-7.2-6.2-15.8-11.6-22.8c-3.3-4.4-3.1-11.4-6.6-16.2c-2.7-3.6-4.7-7.4-6.3-11.5c-3.9-10.3-7.9-20.6-11.3-31
			c-3.7-11.4-7.1-22.9-10.2-34.5c-2.7-10.4-5.5-20.8-6.2-31.6c-0.1-2-0.5-4-1.4-5.7c-4.4-7.8-5.9-16.6-8.2-25.1
			c-3.5-12.6-9.5-24.2-13.9-36.5c-9.2-25.1-21.8-48.9-30.8-74.1c-8.9-25.1-22.7-48-30.9-73.3c-7.5-23.1-17-45.6-22.8-69.2
			c-3.2-13-4.9-26.4-7.1-39.7c-0.7-4.1-1.5-8.1-4.5-11.7c-4,1.6-5.7,5-6.9,8.3c-5.2,13.8-11.4,27.1-15.5,41.3
			c-5.3,18.9-14.4,35.9-27.8,50.5c-7.3,7.9-13.9,16.2-17.8,26.7c-4.8,12.9-10.9,25.3-17.2,37.5c-6.6,12.8-10.2,26.6-15.3,39.9
			c-4.8,12.6-9,25.4-12.8,38.4c-2.8,9.9-6,19.6-8.2,29.7c-1.7,7.9-6.1,15-7.6,23c-2.7,14.5-9.5,27.8-12.2,42.3
			c-2.1,11-4.3,22-6.5,33.1c-1.6,8.4-3.3,16.7-6.1,24.9c-3.1,9.3-5.3,18.9-9.5,27.8c-0.2,0.4-0.4,0.9-0.4,1.4
			c0.3,14.1-6.4,26.6-9.5,39.9c-3,13.1-8.4,25.7-10.5,39c-1.6,9.6-2.6,19.4-3.8,29.1c-0.7,5.3-1.1,10.7-1.8,16c-1,7.2-4,13.6-8.4,20
			c-6.7,9.8-13.4,20.1-15,32.5c-0.1,1-0.2,2.2-0.8,2.8c-5.8,5.2-3,12-3.6,18.1c-0.6,6.4,1.7,12,5.4,17.2c1.6,2.1,3.2,4.3,3.8,7.1
			c0.3,1.4,1.1,2.8,2,3.9c11.1,14.4,13.4,20.6,17.1,40.8c2.1,11.3,1,21.9-3.3,32.4c-2.3,5.7-6.3,9.3-12.1,10.8
			c-7.8,2.1-15.8,3.2-23.7,4.8c-8.3,1.6-16.6,1.4-25,1.4c-31.3,0-62.6,0.7-93.8-0.3c-22.6-0.8-45.2-0.4-67.8-1.4
			c-8.7-0.4-17.7-0.8-26.2-3.1c-2.7-0.7-5.3-0.9-8-1.1c-7.6-0.7-11.8-6.5-10.4-13.9c1.1-6.1,3.2-11.7,6.7-16.9
			c4.3-6.5,8-13.5,11.9-20.3c3.9-6.7,8.7-12.5,15.4-16.5c19.6-11.7,36.3-26.7,52.2-42.9c11.8-12,20.6-25.5,26.2-41.2
			c0.7-1.9,1.2-3.8,1-5.8c-0.5-4.8,0.3-9.4,1.8-13.8c1.2-3.6,0.7-6.2-2.1-8.5c-2.7-2.2-3.1-4.7-1.3-7.8c3.2-5.5,3.6-11,0.2-16.7
			c-1.4-2.3-1.6-5,0.1-7.7c1.9-3.1,2.2-6.7,0.1-9.8c-2.4-3.6-1.8-6.9-0.5-10.5c1.1-3,2.5-5.9-0.5-8.8c-1.3-1.3-1.3-3.4-0.7-4.9
			c1.9-4.4,0.7-9.3,2.3-13.8c0.7-2,0.7-4.5,0.3-6.6c-2.7-13.4-1.3-27-0.9-40.5c0.2-7.5,1.7-15.1,3.5-22.4
			c3.2-13.1,4.8-26.5,6.6-39.8c1-7.1,3.2-13.9,5-20.7c2.5-9.3,3.4-18.7,5.2-28.1c3.2-16.8,4.9-33.9,7.7-50.8
			c2.2-13.1,3.6-26.1,4.6-39.4c0.9-12,2.2-23.9,2.9-35.9c0.8-13.7,1.8-27.4,3-41c1.7-18.1,3.1-36.2,2.6-54.4
			c-0.4-13.3,1.2-26.5,1.9-39.7c0.4-8.6,0.4-17.2,1.3-25.7c1-9.5,2.9-18.9,5.8-28c4.9-15.1,10.1-30.2,14.6-45.5
			c4.8-16.7,9-33.5,13.3-50.3c2.7-10.4,5.2-20.9,7.4-31.4c1.8-8.4,2.4-16.9,3.2-25.5c1.1-11.3,1.2-22.5,1.3-33.8
			c0-7.6-1.3-15.1-2.7-22.5c-2.9-14.7-4.6-29.5-2-44.5c0.9-5,0.3-10.3,0.3-15.5c-0.1-4.2-3.8-6-5.8-9.4c-7.5,3.4-13.5,7.3-17.9,14.5
			c-4.7,7.7-11.3,14.2-19.6,18.5c-3.1,1.6-6.2,3-9.3,4.6c-1.5,0.8-3.4,1.3-4.2,2.9c-5,9.6-14.8,14-22.2,21
			c-6.6,6.3-14.6,10.8-21,17.2c-4,4-9.3,5.9-14.5,8.2c-8.5,3.8-17,7.5-25.4,11.5c-2.9,1.4-5.9,2.1-9.1,2.4
			c-4.4,0.4-8.7,1.6-12.9,2.8c-12.7,3.8-25.6,6.7-37.3,13.3c-2.1,1.2-4.2,2.5-6.3,3.8c-4.1,2.5-8.3,3.7-13.2,3.8
			c-9.7,0.4-19.6,0.6-28.8,4.7c-2.9,1.3-5.7,2.5-8.1,4.8c-5.8,5.6-11.6,11.3-16.5,17.7c-3.9,5-8.7,8.6-15.1,9.7
			c-1.7,0.3-3.3,1-5,1.4c-3.9,0.9-6.5,2.9-7.3,7.1c-0.9,5-4,9.1-7.5,12.5c-8.6,8.5-16.1,17.8-23.3,27.5c-3.2,4.2-6.6,8.6-12,10.6
			c-5.7,2.2-8.9,1.4-11.7-3.9c-2.5-4.8-4.5-9.9-4.8-15.4c-0.7-11.9,0.4-23.7,3.7-35c3.3-11.2,4-22.6,6.5-33.9
			c1.7-7.9,2.7-16,3.7-23.9c1.1-9,3-17.8,3.9-26.8c0.9-8.5,2.8-16.9,5-25.2c3-11.4,3.4-22.8,0.6-34.2c-1.5-6.2-3.4-12.3-5.9-18.2
			c-1.9-4.6-4.1-10.4-9.8-10.9c-5.3-0.5-9.4,3.6-12.6,7.7c-8.7,11.1-15.8,23.3-20,36.7c-4.2,13.2-11.6,24.3-19.4,35.3
			c-2.7,3.9-5.1,7.9-7,12.1c-3.6,8-8.4,15.1-15.1,20.6c-5.6,4.6-8.1,10.3-7.5,17.5c0.3,4-0.3,7.8-1.5,11.6
			c-3.4,10.5-5.2,21.4-6.9,32.3c-0.9,6.3-0.5,12.8-0.5,19.2c-0.1,14.5-2.4,28.9-1.5,43.4c0.4,7.3,1.4,14.5,0,21.8
			c-0.3,1.7-0.4,3.6,0.2,5.1c2.6,7.9,0.9,15.6-0.5,23.3c-2,11-1.9,22-0.1,32.9c1.2,7-0.3,13.8-1.6,20.4c-0.9,4.7-1.6,9.5-0.7,13.9
			c1.9,9.3,1.3,18.6,1.2,27.9c-0.1,10.8,1.2,21.6-1.3,32.3c-0.3,1.2-0.3,2.6,0,3.7c2.8,8.6,0.6,17-1,25.4c-0.4,2-0.5,3.8,0.1,5.8
			c1.3,4.1,1.3,8.4,0.4,12.4c-0.9,4.2-1.2,8.2,0.2,12.3c2,5.8,0.8,11.6-0.1,17.4c-1.9,12-2.9,23.9,1.2,35.6c1.2,3.3,0,6.3-1.6,9.2
			c-2,3.4-2.4,6.4-0.7,10.3c2.4,5.6,4.1,11.6,1.5,17.9c-0.4,1.1-0.5,2.5-0.2,3.6c1,5.6,0.9,11.1-1.3,16.5c-1,2.3,0.3,4.8,1.4,7.1
			c2.3,4.8,3.4,9.5,1.7,14.9c-1.1,3.6-1.4,7.5-0.6,11.5s-0.6,8.4-0.5,12.4c0.3,10.2-0.2,20.3,0.1,30.5c0.1,1.5,0.8,3,0.6,4.3
			c-1.4,7.4-3.1,14.7,1.1,21.8c-4.2,7.5-0.7,15.4-1,23c-0.1,2.6-1.2,4.8-2.5,6.9c-1.7,2.8-2,5.7-0.4,8.3c4.8,7.7,3.3,14.4-3,20.7
			c3,6,3.3,11.8-0.9,17.3c-1.3,1.7-0.3,3.7,0.2,5.7c1,3.9,1.3,7.7-1.3,11.3c-2,2.8-1.6,6.3-0.7,9.3c2.3,7.2,1.1,13.6-3.3,19.5
			c-1.9,2.5-1.9,5-0.4,7.5c2.4,4.2,2.7,8.4,0.2,12.6c-1.7,2.9-0.5,5.3,1.2,7.4c2,2.6,2.3,4.9-0.2,7.1c-1.9,1.7-0.9,4.1-1.4,5.8
			c-3.6,11.6,2.2,23.7-3.2,35.4c-2.8,6-1.4,13.7-0.3,20.4c1.7,10.1,4.3,20.1,7.4,29.9c1.3,4.3,4.6,8.1,8.3,11.1
			c7.2,5.8,9.3,13.6,9.1,22.3c-0.1,7.8,0.9,15.7-2.2,23.3c-4.6,11.2-14.1,21-28.5,20.4c-5.9-0.3-11.9-0.5-17.7,0.1
			c-10.1,1-16.9-3.8-22.3-11.5c-2.1-3-4.1-6.2-5.7-9.5c-4.8-9.9-12.6-18.2-15.5-29.1c-0.9-3.2-3.1-6.1-4.6-9.1
			c-5.6-11.5-8.9-23.6-11.9-36.1c-2.8-11.4-5-22.9-7.2-34.4c-2.8-14.6-4.2-29.6-1.6-44.6c0.5-3.1,0.5-6.4,0.2-9.6
			c-1.9-16.9-1.6-33.7-0.1-50.7c0.7-7.8,1.2-15.7,2.2-23.4c1.9-14,0.7-27.9,1.8-41.9c0.7-9,2.8-18.4-0.5-27.6
			c-0.5-1.3-0.2-3,0.3-4.3c1.6-4.7,1.2-9.2-0.6-13.7c-0.8-2-1.1-4-0.8-6.4c1.4-10.5,1.6-21.1-0.7-31.5c-0.6-2.9-0.9-5.5-0.4-8.6
			c0.8-4.8,0.9-9.9-0.1-14.7c-1.1-5.6-1.5-11.2-2.1-16.7c-0.7-5.8-1-11.7-1.8-17.5c-1.7-12.4-2.5-24.8-3.2-37.3
			c-0.6-11.2-2-22.4-4.5-33.4c-1.7-7.4-2.4-15-2.5-22.6c0-4.7-1.4-9.2-1.7-13.9c-0.9-11.5-0.9-23.3-3.4-34.3
			c-3.5-14.8-1.6-30.3-6.6-44.7c-0.1-0.2-0.2-0.5-0.1-0.7c3.7-9.1-0.8-17.8-1.9-26.6c-0.9-7.9-0.8-15.7-1.2-23.5
			c-0.2-4.6-2.7-8.7-3.3-13.4c-1.2-9.1-0.9-18.1-1-27.2c-0.1-3.7,0-7.1-2.1-10.6c-2-3.4-1.6-7.9-0.7-11.6c1.5-6.2-0.4-12.1-0.9-18.1
			c-0.3-3.4-0.9-6.8-0.8-10.2c0.1-4.7,0-9.4-2-13.7c-1.2-2.6-1-5.3-0.9-8c0.3-8.4-0.8-16.6-2.6-24.8c-0.5-2.1-0.3-4.4-0.4-6.6
			c-0.4-9.3-0.2-18.6-1.1-27.9c-0.8-8.1-1.9-16.6-1.4-24.5c1-14.3-0.3-28.6,1.2-42.7c0.8-7.4,0.9-14.7,1.2-22
			c0.3-7.9,3.6-15.2,4.7-23c2.5-17,8.4-33.2,12.1-49.9c1.6-7.1,1.4-14.8,5.3-21.2c4.7-7.9,7.6-16.4,10.5-25c4-11.8,8.1-23.6,12-35.5
			c4.8-14.9,9.8-29.8,14-44.9c4.3-15.6,7.9-31.3,10.9-47.2c1.3-6.7,2.3-13.5,4.4-20.1c5.4-17,9.6-34.6,19.3-49.9
			c5.5-8.6,10.2-17.3,12.7-27.2c1.9-7.3,6.4-13.2,10.5-19.3c5-7.5,11.5-14.2,12.6-23.8c0.1-0.7,0.5-1.4,0.9-2
			c8.9-13.8,9.7-30,13.7-45.2c2.6-10,3.1-20.3,6.6-30.1c1.7-4.7,1.5-10.1,3.2-15c2-5.9,4.3-11.5,7.5-16.8c0.8-1.3,1.8-2.4,1.7-4
			c-0.5-4.8,1.7-8.8,4.1-12.4c6.5-9.9,8.8-21.9,16.3-31.2c5.9-7.4,9.6-16,13.6-24.4c5.6-11.8,12.2-23,18.4-34.4
			c3.1-5.8,9.1-9.6,13.6-14.5c4.2-4.6,9.1-8.1,14.8-10.7c17.1-7.6,34.4-13.6,53.6-10.8c-0.1,1.8-2.2,0.5-2.7,1.7
			c0,1.8,10,1,14.8-1.1c0.2-1.2-1.8-0.8-1.5-2.3c7.9-0.8,15.8-2.4,23.8-2.2c8.6,0.2,17.1,0.3,25.7,0.7c9.4,0.4,18.6,2,28.1,1.6
			c4.5-0.2,9.2,0.9,13.7,1.9c3.2,0.8,6.4,1.2,9.5,0.6c18-3.3,36.2-2,54.3-3.1c12.1-0.7,24.5-0.7,36.5-3.7c1.6-0.4,3.4-0.4,5.1-0.4
			c13.2,0.5,26.5-1.4,39.7,1.1c0.9,0.2,1.9-0.2,2.8-0.5c13.8-4.6,28.4-5.3,42.4-8.3c12.2-2.6,24.4-5.1,36.2-9.4
			c7.1-2.5,14.5-4.1,22.1-5.3c7.5-1.2,14.8-3.5,22-5.8c10.9-3.6,22.5-5.2,33-10.3c14.4-6.9,29.4-12.3,44.1-18.4
			c18.5-7.7,36.4-17.2,56.5-20.4c8.7-1.4,17.5-2.3,26.1-4c15-2.9,30.2-2.6,45.3-4.1c10.2-1,20.5-1.7,30.7-3.2
			c8.2-1.2,16.5-2.4,24.7-3.4c8-1,16-1.8,24.1-2.6c2.9-0.3,5.8-0.2,8.7-1c12.1-3.1,24.7-3.4,37-5.1c9.2-1.3,18.3-3.2,27.5-4.6
			c15.2-2.3,30.3-5.7,45.8-5.6c3.5,0,6.7-1.3,10.2-1.6c15.1-1.5,30.1-3.4,45.3-4.5c15.8-1.2,31.7-2.4,47.5-4.5
			c10.2-1.4,20.5-1.7,30.5-4c2.1-0.5,4.5-0.6,6.6-0.1c7.8,2,15.7,1.1,23.5,1.3c3.4,0.1,6.9-0.3,10.2,1c1.1,0.4,2.5,0.6,3.6,0.3
			c8.5-2.4,17.1-1,25.7-1.2c16.9-0.5,33.8-2.7,50.8-1.5c14.2,1,28.2,3,41.8,7.7c0.9,0.3,1.9,0.6,2.7,1.2c7.7,6,17.5,5.7,26.1,9
			c14.4,5.7,30.1,6.2,44.5,12c5.7,2.3,12.2,1.6,18.1,1.9c9.5,0.4,18.9,0.9,28.1,3.5c6.4,1.8,12.9,2.8,19.5,3.1
			c7.5,0.4,15.2-0.1,22.3,1.7c7.1,1.8,14.5,0.7,21.3,3c16.4,5.5,33.9,5,50.4,9.9c8.4,2.5,17.1,4.5,25.7,6.3
			c16.6,3.4,32.7,8.4,48.6,14.3c4.1,1.5,8.1,3.5,12.2,5c7.7,2.7,15.8,2.9,23.6,5.3c16.4,5.2,32.7,10.5,48.2,18.1
			c10.7,5.2,22,8.3,33.3,11.7c0.2,0.1,0.5,0,0.7,0.1c18.4,6.8,38.1,9.2,56.6,15.9c23.3,8.4,46.4,17.6,68.1,29.8
			c10.2,5.8,19.6,13,29.5,19.4c10.3,6.7,19.5,14.8,30.2,20.9c7.3,4.2,13.9,10.2,20,16.1c12.6,12.1,24.9,24.6,37.2,37
			c9,9.1,16.8,19.2,24.8,29.1c9.7,12,19.8,23.7,28.2,36.8c14.1,22.2,28.8,44,41.8,66.8c5.8,10.2,11.1,20.8,15.5,31.7
			c2.5,6.1,6.4,11.6,8.9,17.8c4.3,10.4,8.7,20.8,13.9,30.8c7.9,15.3,13.8,31.5,21.2,46.9c4.8,10,8.4,20.3,10.9,31.2
			c2.7,11.9,6,23.6,9.1,35.4c2.4,9.3,3,18.9,3.4,28.4c0.5,11.1,3.4,21.8,3.8,32.8c0.4,11.3,3.4,22.2,4,33.5c0.4,7,1.4,14.1,2.7,21.1
			c2.3,12.3,3.4,24.7,6.2,36.9c4.9,21.5,12,42.3,18,63.5c5.8,20.3,13.5,40,17.5,60.7c1.7,8.7,2.5,18,6.2,25.6
			c7.3,14.8,5.7,31.2,10.9,46.2c3.5,10.2,6.9,20.4,11,30.4c3.7,8.8,7.3,17.7,10,26.9c4,13.4,9.7,26.2,14.4,39.4
			c7.1,20.1,14.7,40,21.8,60.1c7.8,22.2,14.5,44.8,22.7,66.9c6.2,16.7,11.9,33.7,15.1,51.4c2.1,11.8,4.5,23.6,8.2,35
			c3.9,12.1,10.4,23.2,19.1,32.8c3.1,3.4,5.9,7.2,8.7,10.7c-0.9,1.7-3,0.6-4,2.1c2.5,0.9,4.8,1.8,7.4,2.8c0.4,2.8,1.3,5.6,2.7,8.3
			c-1.2,2.2-4.9,1.5-5,4.7c-0.1,2.3,2.1,3.9,1.6,6.7c-4.5-0.6-7.6,2-10.4,5.2c-2.6,3-5.8,5.5-10.1,5.3c-5-0.3-9.4,0.1-10.9,5.6
			c-4-0.5-1.7-5.9-5.7-5.5l-0.1-0.1c-0.3-1.3,1.3-2.5,0-4c-2.8,0.9-3,3.1-2.9,5.5l0,0c-4.2-0.7-4,5.4-8.6,5.3c1.2-6,5.4-10.5,7-16.9
			c-3.6,1.4-4.5,3.9-5.9,5.9c-1.3,1.9-1.6,4.5-3.9,6c-1.2-2.5,0.5-4.4,0.8-6.5c0.3-1.9,1.8-3.6,0.9-5.6c-1.4-3.1-0.4-5.6,1.9-7.9
			c2.5-2.4,2.2-4.6-0.2-6.3c-3.1-0.4-3.7,2.9-6.2,2.9C2096,1933.2,2095.8,1932.6,2095.6,1931.9c0.7-0.3,0.8-0.5,0.3-0.6
			C2095.9,1931.3,2095.7,1931.7,2095.6,1931.9z M2069.5,1838.1c2.3,0.3,3.3-0.4,3.4-2.2c0-0.3-0.5-1-0.8-1
			C2070.4,1834.8,2069.5,1835.8,2069.5,1838.1z"/>
		<path class="st0" d="M2113.4,1955.6c-0.1,1.3,0.3,3.1-1.3,3.6c-1.7,0.5-1.5-1.2-1.7-2.2l0,0c1-0.5,1.9-1,2.9-1.6
			C2113.3,1955.5,2113.4,1955.6,2113.4,1955.6z"/>
		<path class="st0" d="M2085.3,1917.2c-0.2,0.7-0.4,1.3-0.6,2C2083.4,1918,2084.6,1917.7,2085.3,1917.2
			C2085.3,1917.1,2085.3,1917.2,2085.3,1917.2z"/>
		<path class="st0" d="M2073.5,1875.8c-0.3,0.7-1.3,1.4-1.5,1.1C2071.3,1875.1,2072.9,1876.1,2073.5,1875.8L2073.5,1875.8z"/>
		<path class="st0" d="M2072,1866.9c-0.2,0.7-0.4,1.3-0.6,2C2070.1,1867.8,2071.3,1867.4,2072,1866.9L2072,1866.9z"/>
		<path class="st0" d="M2066.1,1844.7c-0.3,0.7-1.4,1.4-1.5,1.1C2063.8,1844.1,2065.5,1845,2066.1,1844.7L2066.1,1844.7z"/>
		<path class="st0" d="M2063.1,1831.4c0.3-0.7,1.4-1.5,1.5-1.1C2065.4,1832.1,2063.7,1831.1,2063.1,1831.4L2063.1,1831.4z"/>
		<path class="st0" d="M2064.1,1822.1c0.1,0.2,0.2,0.4,0.2,0.5c-0.2,0.6-0.5,0.6-0.8,0.2c-0.1-0.1,0-0.4,0.1-0.6
			C2063.7,1822.1,2063.9,1822.1,2064.1,1822.1z"/>
		<path class="st0" d="M2080.9,1911.2c-0.1,0.2-0.3,0.6-0.3,0.6C2080,1911.7,2080.1,1911.5,2080.9,1911.2L2080.9,1911.2z"/>
		<path class="st0" d="M2063.1,1831.4c-0.1,0.2-0.3,0.6-0.3,0.6C2062.3,1831.9,2062.4,1831.7,2063.1,1831.4L2063.1,1831.4z"/>
	</g>
</g>
</svg>
