<?xml version="1.0" encoding="UTF-8" standalone="no"?>
<svg width="287px" height="36px" viewBox="0 0 287 36" version="1.1" xmlns="http://www.w3.org/2000/svg" xmlns:xlink="http://www.w3.org/1999/xlink">
    <title>JL Recrutement</title>
    <defs></defs>
    <g id="logo" stroke="none" stroke-width="1" fill="none" fill-rule="evenodd">
        <path d="M5.854811,1.8582996 L2.11769759,1.8582996 L2.11769759,34.1417004 L5.854811,34.1417004 L5.854811,36 L0,36 L0,0 L5.854811,0 L5.854811,1.8582996 Z M25.8572656,3.78947368 L25.8572656,5.41093117 L22.9565538,5.64777328 L22.9565538,22.791498 C22.9565538,25.2085141 22.2536275,27.1305597 20.8477541,28.5576923 C19.4418806,29.9848249 17.6237634,30.6983806 15.3933481,30.6983806 C12.9612462,30.6983806 11.0393214,30.0546623 9.62751595,28.7672065 C8.2157105,27.4797506 7.53947769,25.5971784 7.59879725,23.1194332 L7.63438881,23.0101215 L9.62751595,23.0101215 C9.62751595,24.9291594 10.1257928,26.3835983 11.1223613,27.3734818 C12.1189299,28.3633653 13.5425779,28.8582996 15.3933481,28.8582996 C16.9712483,28.8582996 18.2703271,28.3087099 19.2906235,27.2095142 C20.3109198,26.1103184 20.8210604,24.6376611 20.8210604,22.791498 L20.8210604,5.64777328 L17.9203486,5.41093117 L17.9203486,3.78947368 L22.9565538,3.78947368 L25.8572656,3.78947368 Z M28.5088365,30.3157895 L28.5088365,28.7125506 L31.4095484,28.4757085 L31.4095484,5.64777328 L28.5088365,5.41093117 L28.5088365,3.78947368 L31.4095484,3.78947368 L33.5450417,3.78947368 L36.4457536,3.78947368 L36.4457536,5.41093117 L33.5450417,5.64777328 L33.5450417,28.4757085 L44.3114875,28.4757085 L44.4716495,24.7408907 L46.358002,24.7408907 L46.358002,30.3157895 L28.5088365,30.3157895 Z M69.1010064,3.80769231 C71.8771616,3.80769231 74.0096677,4.42711931 75.4985886,5.6659919 C76.9875095,6.90486449 77.7319588,8.69634455 77.7319588,11.0404858 C77.7319588,12.4251081 77.3345237,13.670035 76.5396416,14.7753036 C75.7447596,15.8805723 74.6236368,16.6821837 73.1762396,17.1801619 C74.7778676,17.5931195 75.9316157,18.3309663 76.6375184,19.3937247 C77.3434211,20.456483 77.6963672,21.7955385 77.6963672,23.4109312 L77.6963672,25.8340081 C77.6963672,26.7692354 77.838732,27.4615362 78.1234659,27.9109312 C78.4081998,28.3603261 78.841226,28.6032387 79.4225577,28.6396761 L80.2945508,28.694332 L80.2945508,30.3157895 L78.9420717,30.3157895 C77.6844971,30.3157895 76.8065808,29.8785469 76.3082965,29.0040486 C75.8100122,28.1295503 75.5608738,27.0607351 75.5608738,25.7975709 L75.5608738,23.4473684 C75.5608738,21.8441215 75.0596311,20.5718671 74.0571306,19.6305668 C73.0546301,18.6892665 71.6576755,18.200405 69.8662248,18.1639676 L63.3529701,18.1639676 L63.3529701,28.4757085 L66.2536819,28.7307692 L66.2536819,30.3157895 L58.3345606,30.3157895 L58.3345606,28.7307692 L61.2352725,28.4757085 L61.2352725,5.6659919 L58.3345606,5.41093117 L58.3345606,3.80769231 L69.1010064,3.80769231 Z M63.3529701,16.305668 L68.8518655,16.305668 C71.189056,16.305668 72.8974336,15.8259157 73.9770496,14.8663968 C75.0566655,13.9068778 75.5964654,12.6255141 75.5964654,11.0222672 C75.5964654,9.32185385 75.0566655,8.00405326 73.9770496,7.06882591 C72.8974336,6.13359856 71.2721022,5.6659919 69.1010064,5.6659919 L63.3529701,5.6659919 L63.3529701,16.305668 Z M91.7372361,30.6983806 C89.3169982,30.6983806 87.3120273,29.7904949 85.7222631,27.9746964 C84.132499,26.1588978 83.3376289,23.8481922 83.3376289,21.0425101 L83.3376289,20.0404858 C83.3376289,17.222658 84.1295331,14.8846247 85.7133652,13.0263158 C87.2971974,11.1680069 89.2102244,10.2388664 91.4525037,10.2388664 C93.813422,10.2388664 95.6700963,11.0040409 97.0225822,12.534413 C98.3750681,14.064785 99.0513009,16.1052504 99.0513009,18.6558704 L99.0513009,20.51417 L85.4553265,20.51417 L85.4553265,21.0425101 C85.4553265,23.2530475 86.0336835,25.1082921 87.1904148,26.6082996 C88.3471462,28.1083071 89.8627381,28.8582996 91.7372361,28.8582996 C93.0541303,28.8582996 94.181185,28.6700424 95.118434,28.2935223 C96.055683,27.9170022 96.856485,27.3765217 97.520864,26.6720648 L98.4284487,28.1659919 C97.7047501,28.9433237 96.7912426,29.5597143 95.6878989,30.0151822 C94.5845551,30.4706501 93.2676807,30.6983806 91.7372361,30.6983806 L91.7372361,30.6983806 Z M91.4525037,12.097166 C89.8864674,12.097166 88.566627,12.7135566 87.4929431,13.9463563 C86.4192591,15.179156 85.7934471,16.7246871 85.6154885,18.582996 L85.65108,18.6740891 L96.9336033,18.6740891 L96.9336033,18.1275304 C96.9336033,16.4149712 96.4412584,14.9817871 95.4565538,13.8279352 C94.4718491,12.6740833 93.1371791,12.097166 91.4525037,12.097166 L91.4525037,12.097166 Z M111.081247,28.8582996 C112.493052,28.8582996 113.738744,28.4453483 114.81836,27.6194332 C115.897976,26.7935181 116.437776,25.6457563 116.437776,24.1761134 L118.324129,24.1761134 L118.35972,24.2854251 C118.41904,26.1072966 117.710182,27.6315728 116.233125,28.8582996 C114.756068,30.0850264 113.038792,30.6983806 111.081247,30.6983806 C108.471186,30.6983806 106.44842,29.7783493 105.012887,27.9382591 C103.577353,26.0981689 102.859597,23.732808 102.859597,20.8421053 L102.859597,20.0769231 C102.859597,17.210512 103.577353,14.8542602 105.012887,13.0080972 C106.44842,11.1619341 108.465255,10.2388664 111.063451,10.2388664 C112.54644,10.2388664 113.904838,10.5242886 115.138684,11.0951417 C116.372531,11.6659948 117.375017,12.4433149 118.146171,13.4271255 L118.23515,17.7267206 L116.41998,17.7267206 L116.081861,14.2287449 C115.512393,13.5728712 114.803535,13.0536456 113.955265,12.6710526 C113.106995,12.2884596 112.143067,12.097166 111.063451,12.097166 C108.999131,12.097166 107.471675,12.8532313 106.481038,14.3653846 C105.490402,15.8775379 104.995091,17.781365 104.995091,20.0769231 L104.995091,20.8421053 C104.995091,23.1741007 105.487436,25.0931099 106.47214,26.5991903 C107.456845,28.1052707 108.993199,28.8582996 111.081247,28.8582996 L111.081247,28.8582996 Z M126.937285,10.6032389 L127.204222,13.8825911 L127.204222,14.1194332 C127.749962,12.9048522 128.494411,11.9544569 129.437592,11.2682186 C130.380773,10.5819804 131.49893,10.2388664 132.792096,10.2388664 C133.064966,10.2388664 133.328934,10.2601212 133.584008,10.3026316 C133.839082,10.3451419 134.049664,10.390688 134.215758,10.4392713 L133.931026,12.4797571 L132.347202,12.3704453 C131.00658,12.3704453 129.906219,12.756069 129.046085,13.5273279 C128.185951,14.2985869 127.572003,15.3582929 127.204222,16.7064777 L127.204222,28.4757085 L130.104934,28.7125506 L130.104934,30.3157895 L122.185812,30.3157895 L122.185812,28.7125506 L125.086524,28.4757085 L125.086524,12.4615385 L122.185812,12.2246964 L122.185812,10.6032389 L125.086524,10.6032389 L126.937285,10.6032389 Z M151.121748,27.0728745 C150.516688,28.2267264 149.689193,29.11943 148.639237,29.7510121 C147.58928,30.3825943 146.352486,30.6983806 144.928817,30.6983806 C142.900088,30.6983806 141.313314,29.9939342 140.168446,28.5850202 C139.023579,27.1761063 138.451154,24.9898934 138.451154,22.0263158 L138.451154,12.4615385 L136.066519,12.2246964 L136.066519,10.6032389 L138.451154,10.6032389 L140.568851,10.6032389 L140.568851,22.062753 C140.568851,24.4676234 140.969252,26.1923025 141.770066,27.2368421 C142.57088,28.2813817 143.706833,28.8036437 145.177958,28.8036437 C146.79145,28.8036437 148.075699,28.4392749 149.030744,27.7105263 C149.985789,26.9817777 150.659055,25.9736906 151.050565,24.6862348 L151.050565,12.4615385 L148.310015,12.2246964 L148.310015,10.6032389 L151.050565,10.6032389 L153.186058,10.6032389 L153.186058,28.4757085 L155.766446,28.7125506 L155.766446,30.3157895 L151.317501,30.3157895 L151.121748,27.0728745 Z M163.792342,5.55668016 L163.792342,10.6032389 L168.027737,10.6032389 L168.027737,12.388664 L163.792342,12.388664 L163.792342,25.2327935 C163.792342,26.5202494 164.020719,27.4342078 164.477479,27.9746964 C164.93424,28.5151849 165.542256,28.7854251 166.301546,28.7854251 C166.6456,28.7854251 166.98075,28.7702431 167.307008,28.7398785 C167.633265,28.709514 168.009939,28.6578951 168.43704,28.5850202 L168.757364,30.2064777 C168.401446,30.3643733 167.96842,30.4858295 167.458272,30.5708502 C166.948124,30.6558709 166.437983,30.6983806 165.927835,30.6983806 C164.575349,30.6983806 163.522443,30.261138 162.769084,29.3866397 C162.015726,28.5121414 161.639053,27.1275398 161.639053,25.2327935 L161.639053,12.388664 L158.329038,12.388664 L158.329038,10.6032389 L161.639053,10.6032389 L161.639053,5.55668016 L163.792342,5.55668016 Z M180.431394,30.6983806 C178.011156,30.6983806 176.006185,29.7904949 174.416421,27.9746964 C172.826657,26.1588978 172.031787,23.8481922 172.031787,21.0425101 L172.031787,20.0404858 C172.031787,17.222658 172.823691,14.8846247 174.407523,13.0263158 C175.991355,11.1680069 177.904383,10.2388664 180.146662,10.2388664 C182.50758,10.2388664 184.364254,11.0040409 185.71674,12.534413 C187.069226,14.064785 187.745459,16.1052504 187.745459,18.6558704 L187.745459,20.51417 L174.149485,20.51417 L174.149485,21.0425101 C174.149485,23.2530475 174.727842,25.1082921 175.884573,26.6082996 C177.041304,28.1083071 178.556896,28.8582996 180.431394,28.8582996 C181.748288,28.8582996 182.875343,28.6700424 183.812592,28.2935223 C184.749841,27.9170022 185.550643,27.3765217 186.215022,26.6720648 L187.122607,28.1659919 C186.398908,28.9433237 185.485401,29.5597143 184.382057,30.0151822 C183.278713,30.4706501 181.961839,30.6983806 180.431394,30.6983806 L180.431394,30.6983806 Z M180.146662,12.097166 C178.580625,12.097166 177.260785,12.7135566 176.187101,13.9463563 C175.113417,15.179156 174.487605,16.7246871 174.309647,18.582996 L174.345238,18.6740891 L185.627761,18.6740891 L185.627761,18.1275304 C185.627761,16.4149712 185.135416,14.9817871 184.150712,13.8279352 C183.166007,12.6740833 181.831337,12.097166 180.146662,12.097166 L180.146662,12.097166 Z M191.091065,12.2246964 L191.091065,10.6032389 L195.87813,10.6032389 L196.073883,13.8643725 C196.690807,12.7105205 197.515336,11.8178169 198.547496,11.1862348 C199.579657,10.5546527 200.807553,10.2388664 202.231222,10.2388664 C203.702347,10.2388664 204.930244,10.6062716 205.914948,11.3410931 C206.899653,12.0759146 207.605545,13.1963487 208.032646,14.7024291 C208.613978,13.3178068 209.441473,12.2277368 210.515157,11.4321862 C211.588841,10.6366357 212.896818,10.2388664 214.439126,10.2388664 C216.491583,10.2388664 218.078357,10.93724 219.199497,12.3340081 C220.320636,13.7307762 220.881198,15.8926979 220.881198,18.8198381 L220.881198,28.4574899 L223.78191,28.7125506 L223.78191,30.3157895 L215.827197,30.3157895 L215.827197,28.7125506 L218.727909,28.4574899 L218.727909,18.7834008 C218.727909,16.3542389 218.309712,14.638669 217.473306,13.6366397 C216.636901,12.6346104 215.471289,12.1336032 213.976436,12.1336032 C212.315488,12.1336032 211.037171,12.6740837 210.141446,13.7550607 C209.24572,14.8360378 208.691091,16.2145665 208.477541,17.8906883 C208.477541,17.9878547 208.480506,18.0789469 208.486438,18.1639676 C208.49237,18.2489883 208.495336,18.3582989 208.495336,18.4919028 L208.495336,28.4757085 L211.396048,28.7125506 L211.396048,30.3157895 L203.459131,30.3157895 L203.459131,28.7125506 L206.359843,28.4757085 L206.359843,18.7834008 C206.359843,16.4028221 205.935714,14.6993978 205.087445,13.6730769 C204.239175,12.646756 203.073563,12.1336032 201.590574,12.1336032 C200.071994,12.1336032 198.870791,12.5252997 197.986929,13.3087045 C197.103068,14.0921092 196.483188,15.1457424 196.12727,16.4696356 L196.12727,28.4757085 L199.027982,28.7125506 L199.027982,30.3157895 L191.091065,30.3157895 L191.091065,28.7125506 L193.991777,28.4757085 L193.991777,12.4615385 L191.091065,12.2246964 Z M234.726313,30.6983806 C232.306075,30.6983806 230.301104,29.7904949 228.71134,27.9746964 C227.121576,26.1588978 226.326706,23.8481922 226.326706,21.0425101 L226.326706,20.0404858 C226.326706,17.222658 227.11861,14.8846247 228.702442,13.0263158 C230.286274,11.1680069 232.199302,10.2388664 234.441581,10.2388664 C236.802499,10.2388664 238.659173,11.0040409 240.011659,12.534413 C241.364145,14.064785 242.040378,16.1052504 242.040378,18.6558704 L242.040378,20.51417 L228.444404,20.51417 L228.444404,21.0425101 C228.444404,23.2530475 229.022761,25.1082921 230.179492,26.6082996 C231.336223,28.1083071 232.851815,28.8582996 234.726313,28.8582996 C236.043207,28.8582996 237.170262,28.6700424 238.107511,28.2935223 C239.04476,27.9170022 239.845562,27.3765217 240.509941,26.6720648 L241.417526,28.1659919 C240.693827,28.9433237 239.78032,29.5597143 238.676976,30.0151822 C237.573632,30.4706501 236.256758,30.6983806 234.726313,30.6983806 L234.726313,30.6983806 Z M234.441581,12.097166 C232.875544,12.097166 231.555704,12.7135566 230.48202,13.9463563 C229.408336,15.179156 228.782524,16.7246871 228.604566,18.582996 L228.640157,18.6740891 L239.92268,18.6740891 L239.92268,18.1275304 C239.92268,16.4149712 239.430335,14.9817871 238.445631,13.8279352 C237.460926,12.6740833 236.126256,12.097166 234.441581,12.097166 L234.441581,12.097166 Z M245.457167,28.7125506 L248.357879,28.4757085 L248.357879,12.4615385 L245.457167,12.2246964 L245.457167,10.6032389 L250.244232,10.6032389 L250.439985,14.0465587 C251.056909,12.8319777 251.890336,11.893728 252.940292,11.2317814 C253.990248,10.5698347 255.232974,10.2388664 256.668508,10.2388664 C258.756556,10.2388664 260.346296,10.8916939 261.437776,12.1973684 C262.529256,13.503043 263.074988,15.540472 263.074988,18.3097166 L263.074988,28.4757085 L265.9757,28.7125506 L265.9757,30.3157895 L258.038783,30.3157895 L258.038783,28.7125506 L260.939494,28.4757085 L260.939494,18.3279352 C260.939494,16.0688146 260.52723,14.4716646 259.702688,13.5364372 C258.878146,12.6012099 257.706602,12.1336032 256.188022,12.1336032 C254.693169,12.1336032 253.47417,12.5374454 252.530989,13.3451417 C251.587808,14.152838 250.90861,15.2246897 250.493373,16.5607287 L250.493373,28.4757085 L253.394084,28.7125506 L253.394084,30.3157895 L245.457167,30.3157895 L245.457167,28.7125506 Z M274.215145,5.55668016 L274.215145,10.6032389 L278.45054,10.6032389 L278.45054,12.388664 L274.215145,12.388664 L274.215145,25.2327935 C274.215145,26.5202494 274.443522,27.4342078 274.900282,27.9746964 C275.357043,28.5151849 275.965059,28.7854251 276.72435,28.7854251 C277.068403,28.7854251 277.403553,28.7702431 277.729811,28.7398785 C278.056069,28.709514 278.432742,28.6578951 278.859843,28.5850202 L279.180167,30.2064777 C278.82425,30.3643733 278.391223,30.4858295 277.881075,30.5708502 C277.370927,30.6558709 276.860786,30.6983806 276.350638,30.6983806 C274.998152,30.6983806 273.945246,30.261138 273.191888,29.3866397 C272.438529,28.5121414 272.061856,27.1275398 272.061856,25.2327935 L272.061856,12.388664 L268.751841,12.388664 L268.751841,10.6032389 L272.061856,10.6032389 L272.061856,5.55668016 L274.215145,5.55668016 Z M281.048724,0 L286.92133,0 L286.92133,36 L281.048724,36 L281.048724,34.1417004 L284.785837,34.1417004 L284.785837,1.8582996 L281.048724,1.8582996 L281.048724,0 Z" id="jl-recrutement" fill="#FFFFFF"></path>
    </g>
</svg>
