<?xml version="1.0" encoding="utf-8"?>
<!-- Generator: Adobe Illustrator 21.0.2, SVG Export Plug-In . SVG Version: 6.00 Build 0)  -->
<svg version="1.1" id="VECTO" xmlns="http://www.w3.org/2000/svg" xmlns:xlink="http://www.w3.org/1999/xlink" x="0px" y="0px"
	 viewBox="20.9 27.3 41 35" xml:space="preserve">
<g>
	<path d="M20.9,27.3h7.3v1.3h-5.9v31h5.9v1.3h-7.3V27.3z"/>
	<path d="M33.2,57.7c0.6,0,1,0.5,1,1c0,0.2,0,0.5-0.3,0.8c0.2,0.1,0.5,0.2,0.9,0.2c1.2,0,2.1-0.8,2.6-2.4c0.3-0.9,0.4-2,0.4-3.5v-14
		h-3.1v-1.2h4.4v15c0,1.7-0.2,3-0.5,4.1c-0.6,2.2-2.1,3.1-3.8,3.1c-1.6,0-2.7-0.8-2.7-1.9C32.1,58.3,32.4,57.7,33.2,57.7z
		 M36.8,32.3c0-0.8,0.6-1.4,1.3-1.4c0.7,0,1.3,0.6,1.3,1.4c0,0.7-0.5,1.3-1.3,1.3C37.4,33.6,36.8,33,36.8,32.3z"/>
	<path d="M44.5,52.4h2.8V28.5h-2.8v-1.2h4.1v25.1h2.8v1.2h-6.9V52.4z"/>
	<path d="M54.6,59.6h5.9v-31h-5.9v-1.3h7.3v33.5h-7.3V59.6z"/>
</g>
</svg>
